<svg xmlns="http://www.w3.org/2000/svg" width="244" height="253" viewBox="0 0 244 253" fill="none">
  <path d="M121.944 252.724C174.2 252.724 216.562 249.29 216.562 245.054C216.562 240.818 174.2 237.385 121.944 237.385C69.6873 237.385 27.3252 240.818 27.3252 245.054C27.3252 249.29 69.6873 252.724 121.944 252.724Z" fill="#F5F5F5"/>
  <path d="M244 221.828H0V221.998H244V221.828Z" fill="#E0E0E0"/>
  <path d="M53.3978 229.952H25.2061V230.122H53.3978V229.952Z" fill="#E0E0E0"/>
  <path d="M115.001 226.273H102.157V226.442H115.001V226.273Z" fill="#E0E0E0"/>
  <path d="M144.721 226.185H119.696V226.354H144.721V226.185Z" fill="#E0E0E0"/>
  <path d="M192.354 228.217H186.259V228.387H192.354V228.217Z" fill="#E0E0E0"/>
  <path d="M165.213 228.217H140.9V228.387H165.213V228.217Z" fill="#E0E0E0"/>
  <path d="M62.9523 229.952H58.1211V230.122H62.9523V229.952Z" fill="#E0E0E0"/>
  <path d="M217.443 228.217H196.337V228.387H217.443V228.217Z" fill="#E0E0E0"/>
  <path d="M115.656 0H21.4134C20.8202 0.000759312 20.2426 0.263879 19.7644 0.751196C19.2862 1.23851 18.9322 1.92469 18.7538 2.71018C18.6734 3.06306 18.6323 3.43091 18.6318 3.80102V187.741C18.6318 188.766 18.9247 189.749 19.4463 190.474C19.9678 191.199 20.6753 191.608 21.4134 191.61H115.656C116.395 191.61 117.104 191.202 117.626 190.477C118.149 189.751 118.442 188.767 118.442 187.741V3.86878C118.442 2.84272 118.149 1.85868 117.626 1.13314C117.104 0.407603 116.395 0 115.656 0ZM118.32 187.741C118.319 188.721 118.038 189.661 117.539 190.355C117.039 191.048 116.362 191.438 115.656 191.44H21.4134C20.7076 191.438 20.0312 191.048 19.5325 190.354C19.0339 189.661 18.7538 188.721 18.7538 187.741V3.8349C18.7538 2.85494 19.0339 1.915 19.5325 1.22143C20.0312 0.527851 20.7076 0.137302 21.4134 0.135507H115.656C116.362 0.139077 117.038 0.52998 117.537 1.22298C118.036 1.91598 118.318 2.85486 118.32 3.8349V187.741Z" fill="#E0E0E0"/>
  <path d="M221.216 0H126.983C126.248 0.00172658 125.544 0.405245 125.022 1.12309C124.501 1.84094 124.204 2.81527 124.196 3.8349V187.741C124.196 188.767 124.49 189.751 125.012 190.477C125.535 191.202 126.244 191.61 126.983 191.61H221.216C221.953 191.606 222.659 191.197 223.18 190.472C223.7 189.747 223.992 188.765 223.992 187.741V3.8349C223.986 2.81706 223.691 1.84374 223.171 1.12589C222.651 0.408051 221.949 0.00352628 221.216 0ZM223.88 187.741C223.879 188.721 223.598 189.661 223.098 190.355C222.599 191.048 221.922 191.438 221.216 191.44H126.983C126.276 191.44 125.598 191.05 125.099 190.357C124.599 189.663 124.318 188.722 124.318 187.741V3.8349C124.32 2.85431 124.601 1.9144 125.1 1.22101C125.6 0.527631 126.276 0.137298 126.983 0.135507H221.216C221.921 0.139077 222.598 0.52998 223.097 1.22298C223.596 1.91598 223.877 2.85486 223.88 3.8349V187.741Z" fill="#E0E0E0"/>
  <path d="M181.063 33.2878H232.718C232.718 33.2878 229.6 25.4418 223.168 27.8674C223.168 27.8674 223.949 14.7569 218.879 12.6565C213.808 10.5561 211.071 18.6664 211.071 18.6664C211.071 18.6664 207.562 3.50968 200.935 5.40681C194.308 7.30393 191.58 23.023 191.58 23.023C191.58 23.023 181.844 18.1311 181.063 33.2878Z" fill="#F5F5F5"/>
  <path d="M106.379 58.9464H158.053C158.053 58.9464 154.93 51.0937 148.498 53.526C148.498 53.526 149.279 40.4156 144.209 38.3084C139.138 36.2012 136.401 44.325 136.401 44.325C136.401 44.325 132.892 29.1683 126.265 31.0587C119.638 32.949 116.905 48.6748 116.905 48.6748C116.905 48.6748 107.16 43.7897 106.379 58.9464Z" fill="#F5F5F5"/>
  <path d="M105.442 10.5968H18.8076V221.828H105.442V10.5968Z" fill="#F5F5F5"/>
  <path d="M91.0074 78.0532H36.0879V221.998H91.0074V78.0532Z" fill="#FAFAFA"/>
  <path d="M87.5381 82.6266H40.0459V221.998H87.5381V82.6266Z" fill="#E6E6E6"/>
  <path d="M108.58 12.135H18.7881V2.74419C19.0141 1.92727 19.4171 1.22785 19.9416 0.742419C20.466 0.25699 21.086 0.00947344 21.7161 0.0340117H105.511L105.55 0.169521L107.75 8.88952L108.58 12.135Z" fill="#EBEBEB"/>
  <path d="M23.141 17.8059C25.6232 17.8059 27.6354 15.2669 27.6354 12.1349C27.6354 9.00282 25.6232 6.46381 23.141 6.46381C20.6587 6.46381 18.6465 9.00282 18.6465 12.1349C18.6465 15.2669 20.6587 17.8059 23.141 17.8059Z" fill="#EBEBEB"/>
  <path d="M32.1351 17.8059C34.6173 17.8059 36.6296 15.2669 36.6296 12.1349C36.6296 9.00282 34.6173 6.46381 32.1351 6.46381C29.6529 6.46381 27.6406 9.00282 27.6406 12.1349C27.6406 15.2669 29.6529 17.8059 32.1351 17.8059Z" fill="#EBEBEB"/>
  <path d="M41.1283 17.8059C43.6105 17.8059 45.6227 15.2669 45.6227 12.1349C45.6227 9.00282 43.6105 6.46381 41.1283 6.46381C38.646 6.46381 36.6338 9.00282 36.6338 12.1349C36.6338 15.2669 38.646 17.8059 41.1283 17.8059Z" fill="#EBEBEB"/>
  <path d="M50.1234 17.8059C52.6056 17.8059 54.6179 15.2669 54.6179 12.1349C54.6179 9.00282 52.6056 6.46381 50.1234 6.46381C47.6412 6.46381 45.6289 9.00282 45.6289 12.1349C45.6289 15.2669 47.6412 17.8059 50.1234 17.8059Z" fill="#EBEBEB"/>
  <path d="M59.1165 17.8059C61.5988 17.8059 63.611 15.2669 63.611 12.1349C63.611 9.00282 61.5988 6.46381 59.1165 6.46381C56.6343 6.46381 54.6221 9.00282 54.6221 12.1349C54.6221 15.2669 56.6343 17.8059 59.1165 17.8059Z" fill="#EBEBEB"/>
  <path d="M68.1117 17.8059C70.5939 17.8059 72.6061 15.2669 72.6061 12.1349C72.6061 9.00282 70.5939 6.46381 68.1117 6.46381C65.6294 6.46381 63.6172 9.00282 63.6172 12.1349C63.6172 15.2669 65.6294 17.8059 68.1117 17.8059Z" fill="#EBEBEB"/>
  <path d="M77.099 17.8059C79.5812 17.8059 81.5935 15.2669 81.5935 12.1349C81.5935 9.00282 79.5812 6.46381 77.099 6.46381C74.6167 6.46381 72.6045 9.00282 72.6045 12.1349C72.6045 15.2669 74.6167 17.8059 77.099 17.8059Z" fill="#EBEBEB"/>
  <path d="M86.0931 17.8059C88.5753 17.8059 90.5876 15.2669 90.5876 12.1349C90.5876 9.00282 88.5753 6.46381 86.0931 6.46381C83.6109 6.46381 81.5986 9.00282 81.5986 12.1349C81.5986 15.2669 83.6109 17.8059 86.0931 17.8059Z" fill="#EBEBEB"/>
  <path d="M95.0863 17.8059C97.5685 17.8059 99.5808 15.2669 99.5808 12.1349C99.5808 9.00282 97.5685 6.46381 95.0863 6.46381C92.604 6.46381 90.5918 9.00282 90.5918 12.1349C90.5918 15.2669 92.604 17.8059 95.0863 17.8059Z" fill="#EBEBEB"/>
  <path d="M108.58 12.1348C108.58 15.2651 106.564 17.8058 104.08 17.8058C101.596 17.8058 99.5811 15.2651 99.5811 12.1348C99.5811 9.00454 101.596 6.46375 104.08 6.46375C104.783 6.44996 105.478 6.65812 106.114 7.07248C106.75 7.48685 107.309 8.09656 107.75 8.85548L108.58 12.1348Z" fill="#EBEBEB"/>
  <path d="M105.442 28.9311H18.8076V30.9095H105.442V28.9311Z" fill="#FAFAFA"/>
  <path d="M172.644 177.056H105.446V181.25H172.644V177.056Z" fill="#E0E0E0"/>
  <path d="M119.58 221.821H109.435V156.445L114.505 150.428L119.58 156.445V221.821Z" fill="#E6E6E6"/>
  <path d="M134.112 221.821H123.967V156.445L129.042 150.428L134.112 156.445V221.821Z" fill="#E6E6E6"/>
  <path d="M148.648 221.821H138.503V156.445L143.573 150.428L148.648 156.445V221.821Z" fill="#E6E6E6"/>
  <path d="M163.183 221.821H153.037V156.445L158.112 150.428L163.183 156.445V221.821Z" fill="#E6E6E6"/>
  <path d="M177.716 221.821H167.575V156.445L172.646 150.428L177.716 156.445V221.821Z" fill="#E6E6E6"/>
  <path d="M72.8829 23.7276C72.8829 23.7276 71.9411 20.5296 66.1388 21.4782C60.3364 22.4267 59.7362 33.0913 56.8375 40.673C53.9388 48.2547 50.8595 51.9338 50.8595 51.9338C50.8595 51.9338 50.4349 56.5547 56.7496 59.1632C63.0644 61.7718 75.44 57.4151 75.44 57.4151C75.44 57.4151 77.0407 37.2311 74.6641 31.0722C72.2876 24.9133 72.8829 23.7276 72.8829 23.7276Z" fill="#263238"/>
  <path d="M89.8455 225.345L81.9838 226.022C81.9838 226.022 78.6508 183.96 74.981 153.335C74.981 153.233 74.981 153.118 74.9469 153.003C73.4438 140.502 71.8871 129.967 70.4817 125.027C70.4817 125.027 68.6761 164.237 68.1393 181.643C67.6025 199.049 65.099 229.505 65.099 229.505L57.8327 231.002C57.8327 231.002 56.6322 170.375 57.3447 158.925C58.0572 147.474 54.812 105.06 60.4045 94.5581H80.6321C80.6321 94.5581 88.4645 154.141 89.0306 170.66C89.5966 187.178 89.8455 225.345 89.8455 225.345Z" fill="#263238"/>
  <path d="M63.3909 229.64L63.2738 232.893L63.0005 240.42L58.9306 241.26L58.8379 233.136L58.8037 230.013L63.3909 229.64Z" fill="#FF8B7B"/>
  <path d="M88.0987 237.886L83.5457 239.648C83.5457 239.648 83.4383 235.847 83.3309 232.195C83.2626 229.844 83.1943 227.553 83.1504 226.381C83.1504 225.927 83.1211 225.65 83.1113 225.589L88.0206 224.911V227.052L88.0548 231.89L88.0987 237.886Z" fill="#FF8B7B"/>
  <path d="M64.6406 238.753C64.6406 238.753 65.397 234.546 66.5926 234.756C67.7882 234.966 64.6406 238.753 64.6406 238.753Z" stroke="#37474F" stroke-width="0.19579" stroke-miterlimit="10"/>
  <path d="M64.9824 238.753C64.9824 238.753 67.8275 235.969 68.3545 237.398C68.8815 238.828 64.9824 238.753 64.9824 238.753Z" stroke="#37474F" stroke-width="0.19579" stroke-miterlimit="10"/>
  <path d="M89.8457 239.18C89.8457 239.18 90.4801 234.729 91.1975 234.729C91.9148 234.729 89.8457 239.18 89.8457 239.18Z" stroke="#37474F" stroke-width="0.19579" stroke-miterlimit="10"/>
  <path d="M89.6943 240.562C89.6943 240.562 91.3633 236.002 92.2368 236.985C93.1103 237.967 89.6943 240.562 89.6943 240.562Z" stroke="#37474F" stroke-width="0.19579" stroke-miterlimit="10"/>
  <path d="M68.1921 244.214C68.1921 244.214 59.5154 244.526 58.8859 244.417C58.2564 244.309 57.5586 244.262 57.5098 243.313C57.5098 242.852 57.8074 240.054 57.8562 239.078C57.905 238.103 57.7294 237.595 58.6126 237.283C59.4959 236.971 63.7854 236.28 64.3027 237.019C64.82 237.757 66.5866 240.569 67.8944 240.894C69.2022 241.219 70.3002 241.091 70.393 242.121C70.4857 243.15 70.515 244.14 68.1921 244.214Z" fill="#263238"/>
  <path d="M93.174 244.214C93.174 244.214 84.5023 244.526 83.8679 244.417C83.2335 244.309 82.6088 244.045 82.5063 243.604C82.4039 243.164 82.7943 240.054 82.8382 239.078C82.8821 238.103 82.7113 237.595 83.5946 237.283C84.4779 236.971 88.7674 236.28 89.2847 237.019C89.8019 237.757 91.5685 240.569 92.8812 240.894C94.1939 241.219 95.2822 241.091 95.3749 242.121C95.4676 243.15 95.4969 244.14 93.174 244.214Z" fill="#263238"/>
  <path opacity="0.3" d="M74.9476 152.996C73.4446 140.496 71.8879 129.96 70.4824 125.021L71.4145 117.92C71.4145 117.92 73.8301 143.26 74.9476 152.996Z" fill="black"/>
  <path opacity="0.2" d="M63.3821 229.64L63.265 232.893C62.1231 232.954 59.849 233.069 58.8291 233.136L58.7949 230.013L63.3821 229.64Z" fill="black"/>
  <path opacity="0.2" d="M88.0626 231.883L83.329 232.195C83.2607 229.843 83.1924 227.553 83.1484 226.381L88.0284 227.059L88.0626 231.883Z" fill="black"/>
  <path d="M91.1873 224.904L90.4602 230.06L81.7933 230.995L80.6562 224.904H91.1873Z" fill="#37474F"/>
  <path d="M66.2658 226.585L65.5046 231.68L56.457 232.276L56.4619 226.585H66.2658Z" fill="#37474F"/>
  <path d="M93.1008 78.8188C91.1488 80.1129 85.7808 81.529 85.7808 81.529C85.7808 81.529 82.2672 68.9199 81.34 61.7515C81.049 59.1888 80.1674 56.8262 78.8273 55.0181C77.4873 53.2101 75.7611 52.0542 73.9077 51.7238C71.5361 51.2969 61.5223 51.4392 58.0087 52.442C54.4951 53.4448 53.8851 60.6064 53.5728 64.9088C53.2604 69.2112 51.3036 85.2352 52.953 89.978C54.6024 94.7208 60.3852 92.8372 60.3852 92.8372V94.5582H80.6177L80.1297 81.4138C80.1297 81.4138 82.0427 88.3925 85.0097 88.6771C87.9768 88.9617 94.7112 82.0914 94.7112 82.0914L93.1008 78.8188ZM57.4768 86.1702C57.4768 86.1702 57.7012 77.9854 58.1014 75.6276L58.7114 79.9977L59.5703 86.1702H57.4768Z" fill="#37474F"/>
  <path d="M70.3457 84.3136L73.5274 78.9678L77.9927 78.0192L78.6758 83.5277L75.2599 85.2622C75.2599 85.2622 73.6153 88.013 70.3311 87.5387L70.3457 84.3136Z" fill="#FF8B7B"/>
  <path d="M93.1006 78.8188L94.7549 74.6044L98.7907 72.2466L100.318 77.9854L96.9753 79.7944C96.9753 79.7944 96.1018 82.464 94.7549 82.1184L93.1006 78.8188Z" fill="#FF8B7B"/>
  <path d="M70.4123 46.588C70.3904 47.0754 70.3904 47.5642 70.4123 48.0515C70.4611 48.9798 70.3342 50.6804 71.6469 51.5748C70.9686 53.6074 69.3338 58.7025 68.3432 60.4303C66.8353 58.7161 63.2924 51.7983 63.2924 51.7983C63.2924 51.7983 65.7812 48.0515 63.9951 40.9915C63.9951 40.9915 61.4868 38.4439 61.9894 37.0414C62.5653 35.4085 64.2001 36.2893 64.5465 36.9804C64.1805 36.2351 62.4774 28.0572 64.5465 25.0489C65.8349 23.1721 67.1232 23.1518 69.5241 23.0162H69.7242C71.2614 22.9417 72.4034 23.0162 72.4034 23.0162C72.9252 23.7968 73.385 24.6532 73.7746 25.5706C74.8635 28.0386 75.5312 30.8197 75.7266 33.7011C76.1805 40.4156 75.2289 45.8563 70.4123 46.588Z" fill="#FF8B7B"/>
  <path d="M71.7395 38.2407C71.7395 38.2407 69.5533 39.2705 68.7578 36.9669" stroke="#263238" stroke-width="0.097895" stroke-linecap="round" stroke-linejoin="round"/>
  <path d="M69.1005 28.5517C68.7349 28.5368 68.3735 28.6647 68.0577 28.9211C67.742 29.1775 67.4844 29.5519 67.3145 30.0017" stroke="#263238" stroke-width="0.19579" stroke-linecap="round" stroke-linejoin="round"/>
  <path d="M74.6623 27.8539C74.4851 27.5847 74.2705 27.3679 74.0316 27.2166C73.7926 27.0652 73.5341 26.9824 73.2715 26.9731" stroke="#263238" stroke-width="0.19579" stroke-linecap="round" stroke-linejoin="round"/>
  <path d="M72.6521 36.9939L72.2227 31.9191L74.3747 35.754C74.3747 35.754 74.1649 37.0752 72.6521 36.9939Z" fill="#FF5652"/>
  <path d="M69.1196 31.9598C69.144 32.4747 69.3636 32.8745 69.6076 32.8541C69.8516 32.8338 70.0224 32.3934 69.9931 31.8717C69.9638 31.35 69.754 30.957 69.5051 30.9841C69.2562 31.0112 69.0903 31.4652 69.1196 31.9598Z" fill="#263238"/>
  <path d="M73.3744 31.1129C73.4037 31.6346 73.6184 32.0343 73.8624 32.0072C74.1064 31.9801 74.2773 31.5465 74.248 31.0248C74.2187 30.5031 74.004 30.1101 73.76 30.1372C73.516 30.1643 73.35 30.5979 73.3744 31.1129Z" fill="#263238"/>
  <path d="M63.0636 33.2267C63.0636 33.2267 60.5699 28.5856 62.6293 25.5773C63.9176 23.7005 67.3824 22.4741 69.7785 22.3318C69.7248 23.1178 69.7785 30.0016 63.0636 33.2267Z" fill="#263238"/>
  <path d="M73.8149 25.5909C72.2829 25.376 70.8451 24.4637 69.7255 22.9959L69.5352 22.7181C70.4963 22.663 71.4589 22.7584 72.4046 23.0027C72.9265 23.7833 73.3862 24.6396 73.7759 25.557L73.8149 25.5909Z" fill="#263238"/>
  <path opacity="0.2" d="M70.4281 48.0515C69.3676 47.6037 68.4266 46.7289 67.7246 45.5378C68.5652 46.1202 69.4775 46.4765 70.4135 46.588C70.3965 47.0758 70.4014 47.5645 70.4281 48.0515Z" fill="black"/>
  <path opacity="0.2" d="M58.7155 79.9977L58.1055 75.6275V69.3535C58.1055 69.3535 58.8082 75.9731 58.7155 79.9977Z" fill="black"/>
  <path d="M148.399 59.6998L112.827 62.4956L114.377 100.506L149.949 97.7102L148.399 59.6998Z" fill="#00AB9B"/>
  <path opacity="0.3" d="M148.399 59.6998L112.827 62.4956L114.377 100.506L149.949 97.7102L148.399 59.6998Z" fill="black"/>
  <path d="M135.471 60.7194L99.8994 63.5152L101.449 101.526L137.021 98.7298L135.471 60.7194Z" fill="#00AB9B"/>
  <path opacity="0.3" d="M135.471 60.7194L99.8994 63.5152L101.449 101.526L137.021 98.7298L135.471 60.7194Z" fill="white"/>
  <path opacity="0.3" d="M139.872 64.0042L132.278 64.6367L132.432 68.1938L140.025 67.5613L139.872 64.0042Z" fill="black"/>
  <path opacity="0.5" d="M109.702 67.5015L102.121 68.0974L102.356 73.8473L109.937 73.2514L109.702 67.5015Z" fill="white"/>
  <path opacity="0.3" d="M112.349 82.4956L100.714 83.4101L100.897 87.895L112.532 86.9806L112.349 82.4956Z" fill="black"/>
  <path d="M158.679 28.3688L156.727 31.8243C157.267 32.3484 157.889 32.6895 158.542 32.8203L158.679 28.3688Z" fill="#A02724"/>
  <path d="M192.369 240.291L186.698 239.844L185.546 233.13L184.917 229.451L184.683 228.095L189.045 227.682L189.358 227.648L190.285 231.544L192.369 240.291Z" fill="#B55B52"/>
  <path d="M159.761 241.396C159.869 241.931 154.496 240.976 154.496 240.976L154.306 234.708L154.159 229.871V229.606H154.203L159.659 230.358C159.659 230.358 159.659 232.391 159.659 234.701C159.669 237.669 159.698 241.104 159.761 241.396Z" fill="#B55B52"/>
  <path d="M171.142 46.5405C171.142 46.5405 163.48 49.4201 164.046 47.3333C164.331 46.0702 164.446 44.7447 164.383 43.4238C164.383 42.5566 164.305 41.94 164.305 41.94C161.533 42.1636 159.669 39.3789 158.839 35.9505C157.77 31.5533 158.161 26.6411 159.459 22.4674C159.561 22.1286 159.854 20.6922 160.113 20.5161L163.119 18.5918C163.119 18.5918 166.047 21.2546 167.569 22.9078C169.092 24.561 170.317 32.2444 170.317 38.2203C170.317 44.1962 171.142 46.5405 171.142 46.5405Z" fill="#B55B52"/>
  <path d="M158.449 27.1018C158.313 27.1532 158.193 27.2629 158.105 27.415C158.018 27.5672 157.967 27.7541 157.961 27.9487C157.941 28.1296 157.961 28.3146 158.018 28.4792C158.076 28.6438 158.168 28.7802 158.283 28.8702L158.449 27.1018Z" fill="#263238"/>
  <path d="M158.448 23.6599C158.767 23.65 159.081 23.7699 159.351 24.0048" stroke="#263238" stroke-width="0.19579" stroke-linecap="round" stroke-linejoin="round"/>
  <path d="M161.112 34.6564C161.112 34.6564 163.338 39.4805 166.88 40.5849C170.423 41.6893 171.541 39.9819 172.014 37.1972C172.424 34.5716 173.332 32.1459 174.644 30.1711C175.869 28.4162 175.132 23.6531 173.576 19.7369C173.576 19.7369 175.245 17.7923 172.556 15.9223C169.867 14.0523 168.876 17.1622 166.544 15.3464C164.211 13.5306 167.324 12.9276 165.124 18.5918C162.923 24.2561 161.708 20.1366 161.381 22.6571C161.054 25.1776 159.351 29.5545 161.112 34.6564Z" fill="#263238"/>
  <path d="M161.382 23.8292C161.163 23.7276 154.106 20.184 154.038 18.5783C153.969 16.9725 159.508 19.8927 159.718 20.0079L161.148 23.1449L161.382 23.8292Z" fill="#00AB9B"/>
  <path d="M175.62 27.7116C175.552 28.0029 175.132 29.9339 174.952 29.9339L174.361 29.8865C173.811 29.8233 173.265 29.7352 172.722 29.6223C172.121 29.4935 171.531 29.3309 170.95 29.1412H170.926C170.335 28.9447 169.755 28.7279 169.188 28.4637C167.799 27.8812 166.435 27.1866 165.104 26.3836C164.352 25.9297 163.689 25.4893 163.152 25.1098C162.054 24.351 161.4 23.8157 161.4 23.8157L161.302 23.5921L160.902 22.7181L160.048 20.8413L159.755 20.2112V20.1638C159.742 20.1066 159.742 20.0448 159.755 19.9876C159.785 19.2694 160.844 17.2774 161.034 16.9386C161.818 15.4842 162.816 14.2784 163.962 13.4019C165.533 12.1958 167.305 12.7243 168.974 13.1308C169.526 13.29 170.064 13.5308 170.579 13.849L170.906 14.0455L170.97 14.0862C171.028 14.1336 171.092 14.1675 171.15 14.2081L171.258 14.2827C172.498 15.089 173.626 16.1922 174.591 17.5417C176.787 20.9633 175.894 26.6072 175.62 27.7116Z" fill="#00AB9B"/>
  <path d="M173.235 50.179C173.235 50.179 172.884 46.7913 172.118 46.1137C171.351 45.4362 163.739 45.5378 162.553 46.6964C161.367 47.855 161.577 51.6425 161.577 51.6425L173.235 50.179Z" fill="#00AB9B"/>
  <path d="M159.721 29.3038C159.721 29.3038 161.019 26.9731 162.41 28.4163C163.801 29.8594 162.698 33.281 161.063 34.2431C161.063 34.2431 158.95 35.1985 158.677 32.2105C158.404 29.2225 159.721 29.3038 159.721 29.3038Z" fill="#B55B52"/>
  <path d="M154.514 110.419C154.514 110.419 151.61 148.992 150.8 166.73C149.99 184.468 152.967 229.83 152.967 229.83H160.028C160.028 229.83 160.838 184.766 162.058 171.249C163.278 157.732 167.328 139.405 167.328 139.405C167.328 139.405 169.768 168.41 172.208 180.24C174.648 192.07 182.574 228.211 182.574 228.211L190.704 226.042C190.704 226.042 180.944 179.678 180.944 165.314C180.944 150.95 181.036 121.951 178.606 110.433L154.514 110.419Z" fill="#00AB9B"/>
  <path opacity="0.3" d="M190.689 226.056L182.564 228.231C182.564 228.231 174.644 192.091 172.204 180.261C170.862 173.756 169.524 162.042 168.592 152.82C167.812 145.293 167.324 139.425 167.324 139.425C167.324 139.425 163.268 157.719 162.048 171.27C160.828 184.821 160.023 229.85 160.023 229.85H152.967C152.967 229.85 149.99 184.495 150.8 166.757C151.61 149.019 154.514 110.44 154.514 110.44H178.582C181.022 121.958 180.924 150.991 180.924 165.321C180.924 179.651 190.689 226.056 190.689 226.056Z" fill="black"/>
  <path opacity="0.3" d="M168.589 152.82C167.813 145.293 167.325 139.425 167.325 139.425L167.813 128.896L168.589 152.82Z" fill="black"/>
  <path d="M152.201 227.946H160.663L160.248 232.784H152.533L152.201 227.946Z" fill="#263238"/>
  <path d="M181.546 227.242L190.696 222.519L191.852 229.39L182.922 232.784L181.546 227.242Z" fill="#263238"/>
  <path opacity="0.2" d="M189.045 227.682L184.917 229.451L185.547 233.13L190.285 231.544L189.045 227.682Z" fill="black"/>
  <path opacity="0.2" d="M159.658 234.729H154.29L154.144 229.891L154.178 229.633L159.634 230.386C159.634 230.386 159.648 232.391 159.658 234.729Z" fill="black"/>
  <path d="M151.709 243.801C151.744 243.93 148.332 241.172 149.269 239.885C150.206 238.597 151.709 243.801 151.709 243.801Z" stroke="#00AB9B" stroke-width="0.19579" stroke-miterlimit="10"/>
  <path d="M152.197 243.604C152.172 243.74 150.294 238.923 151.572 238.496C152.851 238.069 152.197 243.604 152.197 243.604Z" stroke="#00AB9B" stroke-width="0.19579" stroke-miterlimit="10"/>
  <path d="M185.913 240.874C185.913 240.874 184.796 235.88 183.712 236.7C182.629 237.52 185.913 240.874 185.913 240.874Z" stroke="#00AB9B" stroke-width="0.19579" stroke-miterlimit="10"/>
  <path d="M185.611 241.308C185.611 241.308 183.088 237.439 182.351 238.794C181.615 240.149 185.611 241.308 185.611 241.308Z" stroke="#00AB9B" stroke-width="0.19579" stroke-miterlimit="10"/>
  <path d="M192.58 239.831H186.519C186.519 239.831 183.015 242.758 181.478 243.029C179.94 243.3 179.038 243.428 179.082 244.96C179.126 246.491 180.058 246.626 183.205 246.559C186.353 246.491 192.599 247.026 193.278 246.159C193.956 245.292 193.526 243.659 192.58 239.831Z" fill="#263238"/>
  <path d="M159.76 240.874L153.904 240.935C153.904 240.935 150.4 243.862 148.868 244.133C147.336 244.404 146.428 244.533 146.467 246.064C146.506 247.595 147.443 247.731 150.596 247.663C153.748 247.595 159.306 248.225 159.985 247.358C160.663 246.491 160.287 245.068 159.76 240.874Z" fill="#263238"/>
  <path opacity="0.3" d="M159.718 20.0079C159.869 21.0852 160.025 21.9118 161.309 23.7886C159.679 22.9485 154.096 19.9537 154.038 18.5783C153.979 17.2029 158.313 19.2694 159.718 20.0079Z" fill="black"/>
  <path opacity="0.3" d="M159.718 20.1774C159.703 20.1202 159.703 20.0583 159.718 20.0011C159.718 20.0011 159.718 20.0757 159.718 20.218V20.1774Z" fill="black"/>
  <path opacity="0.3" d="M161.382 23.8293L161.23 23.748C161.238 23.7196 161.248 23.6923 161.26 23.6666L161.382 23.8293Z" fill="black"/>
  <path d="M175.62 27.7116C175.552 28.0029 175.132 29.9339 174.952 29.9339L174.361 29.8865C173.811 29.8233 173.265 29.7352 172.722 29.6223C172.121 29.4935 171.531 29.3309 170.95 29.1412H170.926C170.335 28.9447 169.755 28.7279 169.188 28.4637C167.799 27.8812 166.435 27.1866 165.104 26.3836C164.352 25.9297 163.689 25.4893 163.152 25.1098C162.054 24.351 161.4 23.8157 161.4 23.8157L161.302 23.5921L160.902 22.7181L160.048 20.8413L159.755 20.2112V20.1638C159.742 20.1066 159.742 20.0448 159.755 19.9876C159.785 19.2694 160.844 17.2774 161.034 16.9386C161.818 15.4842 162.816 14.2784 163.962 13.4019C165.533 12.1958 167.305 12.7243 168.974 13.1308C169.526 13.29 170.064 13.5308 170.579 13.849L170.906 14.0455L170.97 14.0862C171.028 14.1336 171.092 14.1675 171.15 14.2081L171.258 14.2827C172.498 15.089 173.626 16.1922 174.591 17.5417C176.787 20.9633 175.894 26.6072 175.62 27.7116Z" fill="#00AB9B"/>
  <path opacity="0.2" d="M166.021 41.2896C165.502 42.0401 164.955 42.7524 164.382 43.4238C164.382 42.5566 164.304 41.94 164.304 41.94C164.892 41.8156 165.469 41.5973 166.021 41.2896Z" fill="black"/>
  <path d="M154.516 110.799V76.095L149.953 73.5136C149.953 73.5136 150.827 54.9963 157.322 52.0761C163.817 49.1559 175.378 47.9295 178.56 52.0761C180.57 54.7117 180.839 58.9396 180.912 62.5645C181.068 69.9497 179.677 77.1723 179.37 84.5169C179.126 90.4929 178.979 96.4688 178.882 102.452C178.882 102.912 178.755 110.799 178.745 110.799H154.516Z" fill="#263238"/>
  <path d="M157.014 77.2808C157.014 77.2808 153.637 92.7694 150.299 93.7383C146.961 94.7072 135.561 86.0685 135.561 86.0685H130.471L129.749 79.8554C129.749 79.8554 134.488 77.4163 137.645 80.3365C137.645 80.3365 145.019 84.8015 147.473 86.1024L151.031 74.1505L157.014 77.2808Z" fill="#B55B52"/>
</svg>