<svg xmlns="http://www.w3.org/2000/svg" width="40" height="40" viewBox="0 0 41 41" fill="none">
  <path d="M32.1735 6.08325H8.1735C6.70017 6.08325 5.50684 7.27659 5.50684 8.74992V32.7499C5.50684 34.2233 6.70017 35.4166 8.1735 35.4166H21.5068V23.4166H17.5068V19.4166H21.5068V17.2686C21.5068 13.2019 23.4882 11.4166 26.8682 11.4166C28.4868 11.4166 29.3428 11.5366 29.7482 11.5913V15.4166H27.4428C26.0082 15.4166 25.5068 16.1739 25.5068 17.7073V19.4166H29.7122L29.1415 23.4166H25.5068V35.4166H32.1735C33.6468 35.4166 34.8402 34.2233 34.8402 32.7499V8.74992C34.8402 7.27659 33.6455 6.08325 32.1735 6.08325Z" fill="white"/>
</svg>