<svg xmlns="http://www.w3.org/2000/svg" width="40" height="40" viewBox="0 0 41 41" fill="none">
  <path d="M13.5046 4.75C8.35922 4.75 4.17383 8.93927 4.17383 14.0859V27.4193C4.17383 32.5646 8.3631 36.75 13.5098 36.75H26.8431C31.9884 36.75 36.1738 32.5607 36.1738 27.4141V14.0807C36.1738 8.9354 31.9846 4.75 26.8379 4.75H13.5046ZM29.5072 10.0833C30.2432 10.0833 30.8405 10.6807 30.8405 11.4167C30.8405 12.1527 30.2432 12.75 29.5072 12.75C28.7712 12.75 28.1738 12.1527 28.1738 11.4167C28.1738 10.6807 28.7712 10.0833 29.5072 10.0833ZM20.1738 12.75C24.5858 12.75 28.1738 16.338 28.1738 20.75C28.1738 25.162 24.5858 28.75 20.1738 28.75C15.7618 28.75 12.1738 25.162 12.1738 20.75C12.1738 16.338 15.7618 12.75 20.1738 12.75ZM20.1738 15.4167C18.7593 15.4167 17.4028 15.9786 16.4026 16.9788C15.4024 17.979 14.8405 19.3355 14.8405 20.75C14.8405 22.1645 15.4024 23.521 16.4026 24.5212C17.4028 25.5214 18.7593 26.0833 20.1738 26.0833C21.5883 26.0833 22.9449 25.5214 23.9451 24.5212C24.9453 23.521 25.5072 22.1645 25.5072 20.75C25.5072 19.3355 24.9453 17.979 23.9451 16.9788C22.9449 15.9786 21.5883 15.4167 20.1738 15.4167Z" fill="white"/>
</svg>