<svg xmlns="http://www.w3.org/2000/svg" width="40" height="40" viewBox="0 0 41 41" fill="none">
  <path d="M32.1735 6.08325H8.1735C6.70017 6.08325 5.50684 7.27659 5.50684 8.74992V32.7499C5.50684 34.2233 6.70017 35.4166 8.1735 35.4166H32.1735C33.6468 35.4166 34.8402 34.2233 34.8402 32.7499V8.74992C34.8402 7.27659 33.6468 6.08325 32.1735 6.08325ZM14.7788 30.0833H10.8455V17.4273H14.7788V30.0833ZM12.7722 15.6179C11.5042 15.6179 10.4788 14.5899 10.4788 13.3246C10.4788 12.0593 11.5055 11.0326 12.7722 11.0326C14.0362 11.0326 15.0642 12.0606 15.0642 13.3246C15.0642 14.5899 14.0362 15.6179 12.7722 15.6179ZM29.5122 30.0833H25.5815V23.9286C25.5815 22.4606 25.5548 20.5726 23.5375 20.5726C21.4908 20.5726 21.1762 22.1713 21.1762 23.8219V30.0833H17.2455V17.4273H21.0188V19.1566H21.0722C21.5975 18.1619 22.8802 17.1126 24.7935 17.1126C28.7762 17.1126 29.5122 19.7339 29.5122 23.1419V30.0833Z" fill="white"/>
</svg>