<svg width="244" height="220" viewBox="0 0 244 220" fill="none" xmlns="http://www.w3.org/2000/svg">
<g id="Group 45">
<circle id="Ellipse 87" cx="134" cy="110" r="110" fill="#00AB9B" fill-opacity="0.37"/>
<g id="messenger/cuate">
<g id="background-complete">
<path id="Vector" d="M128.059 150.151C127.906 150.151 127.754 150.151 127.596 150.151C127.749 150.132 127.905 150.132 128.059 150.151Z" fill="#EBEBEB"/>
<path id="Vector_2" d="M106.636 41.8547V217.048H105.241L91.1152 217.023H91.0286L63.7598 216.979H63.1589L54.4513 216.969L52.8116 216.964H52.7199L29.0564 216.925L25.4562 216.91L24.8503 216.905L13.0312 216.851V41.8547H106.636Z" fill="#EBEBEB"/>
<path id="Vector_3" d="M52.7659 53.8433L45.8608 53.7742H38.9609L25.1508 53.7297H24.6416V54.2233L24.7231 75.5598V75.9596H25.1305L39.0373 75.7918L52.7455 75.5598L38.8438 75.3278L25.5378 75.165V75.5598L25.1305 75.16H25.5378L25.6244 54.6922H25.1152L25.6244 54.1986V54.6922L38.9405 54.6478L45.8405 54.6181L52.3992 54.554V54.2184L52.7506 54.549H52.4043L52.4654 59.4846L52.5469 64.7854L52.7506 75.5401L52.9492 64.9483L53.0307 59.5883L53.0969 54.2036V53.8679L52.7659 53.8433Z" fill="#DBDBDB"/>
<path id="Vector_4" d="M91.3589 59.5685L91.4251 54.1838V53.8481H91.0686L84.1687 53.779H77.2585L63.4536 53.7346H62.9443V54.2282L63.0309 75.5647V75.9645H63.4332L77.34 75.7967L91.0482 75.5647L77.1414 75.3327L63.8457 75.1698V75.5647L63.4332 75.1649H63.8457L63.9271 54.6971H63.4179L63.9271 54.2035V54.6971L77.2382 54.6526L84.1483 54.623L90.7071 54.5589V54.2232L91.0533 54.5539H90.7121L90.7682 59.4895L90.8547 64.7903L91.0533 75.5449L91.2519 64.9532L91.3385 59.5932" fill="#DBDBDB"/>
<path id="Vector_5" d="M52.7659 87.035L25.1508 86.9807H24.6416V87.4743L24.6976 118.119C24.6976 123.226 24.7197 128.334 24.7638 133.444L24.8758 148.769V149.036H25.1457L39.0118 148.912L52.7608 148.774L38.8947 148.631L25.4207 148.513V148.769L25.1457 148.503H25.4207L25.5124 133.434C25.5463 128.324 25.5684 123.216 25.5786 118.109L25.6397 87.9431H25.1305L25.6397 87.4496V87.9431L52.3228 87.8938V87.4644L52.7608 87.8938H52.333C52.333 92.8294 52.333 97.765 52.384 102.701L52.496 118.001L52.771 148.764L53.0408 118.228L53.158 102.858C53.2038 97.7353 53.1936 92.5974 53.2089 87.4644V87.0399L52.7659 87.035Z" fill="#DBDBDB"/>
<path id="Vector_6" d="M91.0745 87.035L63.4594 86.9807H62.9502V87.4743L63.0164 118.119C63.0164 123.228 63.0469 128.336 63.0775 133.444L63.1742 148.774V149.041H63.4441L77.3102 148.917L91.0592 148.779L77.1931 148.636L63.7191 148.518V148.769L63.4441 148.503H63.7191L63.8108 133.434C63.8515 128.324 63.8736 123.216 63.877 118.109L63.9381 87.9431H63.4289L63.9381 87.4496V87.9431L90.6162 87.8938V87.4644L91.0592 87.8938H90.6162C90.6162 92.8294 90.6162 97.765 90.6722 102.701L90.7842 118.001L91.0592 148.764L91.3342 118.228L91.4411 102.858C91.492 97.7353 91.4818 92.5974 91.4971 87.4644V87.0399L91.0745 87.035Z" fill="#DBDBDB"/>
<path id="Vector_7" d="M52.7659 160.269L25.1508 160.22H24.6416V160.713L24.6976 191.363C24.6976 196.473 24.7197 201.582 24.7638 206.688L24.8351 216.712V216.905H25.4411V216.703L25.4971 206.669C25.531 201.562 25.5531 196.454 25.5633 191.344L25.6244 161.172H25.1152L25.6244 160.679V161.172L52.333 161.108V160.684L52.771 161.108H52.333C52.333 166.044 52.333 170.979 52.384 175.915L52.496 191.215L52.72 216.629V216.94H52.8117V216.629L53.0307 191.432L53.1478 176.068C53.1936 170.94 53.1834 165.807 53.1987 160.674V160.245L52.7659 160.269Z" fill="#DBDBDB"/>
<path id="Vector_8" d="M91.0745 160.269L63.4594 160.22H62.9502V160.713L63.0164 191.363C63.0164 196.472 63.0469 201.58 63.0775 206.688L63.1386 216.653V216.994H63.7395V216.653L63.8006 206.688C63.8413 201.582 63.8634 196.473 63.8668 191.363L63.9279 161.192H63.4187L63.9279 160.699V161.192L90.606 161.138V160.713L91.049 161.138H90.606C90.606 166.073 90.606 171.009 90.662 175.945L90.774 191.245L90.9981 216.599V217.028H91.0846V216.599L91.3138 191.462L91.4207 176.098C91.4716 170.97 91.4615 165.837 91.4767 160.704V160.274L91.0745 160.269Z" fill="#DBDBDB"/>
<path id="Vector_9" d="M115.007 33.5087V217.033L106.636 217.048V41.8547H13.0306V216.851L4.66406 216.816V33.5087H115.007Z" fill="#DBDBDB"/>
<path id="Vector_10" d="M103.3 148.759H94.8115V171.29H103.3V148.759Z" fill="#DBDBDB"/>
<path id="Vector_11" d="M102.481 152.683C102.463 153.336 102.247 153.969 101.859 154.504C101.472 155.038 100.931 155.45 100.303 155.688C99.6754 155.926 98.9894 155.979 98.3308 155.841C97.6721 155.703 97.0701 155.38 96.5999 154.912C96.1298 154.444 95.8124 153.852 95.6874 153.21C95.5624 152.569 95.6354 151.905 95.8973 151.304C96.1591 150.702 96.5982 150.188 97.1597 149.827C97.7211 149.466 98.3799 149.273 99.0538 149.273C99.5098 149.279 99.9603 149.371 100.379 149.546C100.798 149.72 101.178 149.973 101.496 150.29C101.814 150.607 102.065 150.981 102.234 151.392C102.403 151.802 102.487 152.241 102.481 152.683Z" fill="#C7C7C7"/>
<path id="Vector_12" d="M199.559 20H182.103V27.1517H199.559V20Z" fill="#EBEBEB"/>
<path id="Vector_13" d="M189.817 29.0172H172.361V36.1689H189.817V29.0172Z" fill="#EBEBEB"/>
<path id="Vector_14" d="M209.295 29.0172H191.839V36.1689H209.295V29.0172Z" fill="#EBEBEB"/>
<path id="Vector_15" d="M145.052 93.7573H127.596V100.909H145.052V93.7573Z" fill="#EBEBEB"/>
<path id="Vector_16" d="M18.3369 20.0099H0.880859V27.1615H18.3369V20.0099Z" fill="#EBEBEB"/>
<path id="Vector_17" d="M182.098 183.081H199.554V175.93H182.098V183.081Z" fill="#EBEBEB"/>
<path id="Vector_18" d="M191.839 174.064H209.295V166.913H191.839V174.064Z" fill="#EBEBEB"/>
<path id="Vector_19" d="M152.666 47.7815L151.716 73.7609L193.98 75.2128L194.93 49.2335L152.666 47.7815Z" fill="#EBEBEB"/>
<path id="Vector_20" d="M194.915 49.2334C193.153 50.7585 191.35 52.1948 189.583 53.71C187.816 55.2252 186.018 56.6417 184.195 58.0879C182.315 59.5982 180.432 61.0953 178.548 62.5792L178.38 62.7224L173.359 66.6708L173.115 66.8535L172.886 66.6511C171.314 65.2329 169.744 63.8099 168.175 62.3818C168.116 62.3366 168.059 62.2871 168.007 62.2338C166.23 60.6248 164.443 59.0059 162.696 57.3574C161.011 55.8027 159.325 54.2184 157.65 52.6341C155.974 51.0497 154.304 49.4457 152.654 47.8021C154.421 49.2236 156.153 50.7042 157.894 52.1553C159.636 53.6064 161.372 55.1167 163.098 56.5973C165.016 58.2425 166.935 59.9223 168.853 61.6366L173.156 65.4468C174.683 64.2771 176.211 63.0975 177.739 61.9426C179.775 60.3829 181.812 58.8364 183.849 57.3031C185.676 55.9343 187.51 54.5754 189.354 53.2263C191.228 51.8888 193.061 50.5512 194.915 49.2334Z" fill="white"/>
<path id="Vector_21" d="M168.909 62.2289L168.853 62.2684C168.624 62.446 168.394 62.6237 168.165 62.7915C167.076 63.6257 165.96 64.4153 164.825 65.1853C163.445 66.1379 162.034 67.0411 160.614 67.9393C159.193 68.8376 157.762 69.6964 156.3 70.5355C154.839 71.3745 153.367 72.1889 151.845 72.9292C153.169 71.8878 154.539 70.9155 155.918 69.9679C157.298 69.0202 158.719 68.1121 160.135 67.2138C161.55 66.3155 162.992 65.4518 164.453 64.6128C165.614 63.9465 166.795 63.29 168.018 62.678C168.293 62.5349 168.573 62.3967 168.858 62.2585L168.909 62.2289Z" fill="white"/>
<path id="Vector_22" d="M193.896 74.3753C192.435 73.5313 191.019 72.6133 189.629 71.6805C188.239 70.7476 186.869 69.7753 185.509 68.7981C184.15 67.8208 182.815 66.7992 181.507 65.7578C180.437 64.9138 179.383 64.055 178.365 63.1518L177.708 62.5743C177.694 62.5583 177.679 62.5434 177.662 62.5299L177.723 62.5595L178.533 63.0531C179.689 63.749 180.814 64.4795 181.929 65.2297C183.325 66.1625 184.684 67.1348 186.044 68.117C187.403 69.0992 188.733 70.0912 190.041 71.1573C191.35 72.2234 192.664 73.2549 193.896 74.3753Z" fill="white"/>
<path id="Vector_23" d="M188.646 85.2357L182.598 103.28L211.951 112.524L218 94.4798L188.646 85.2357Z" fill="#EBEBEB"/>
<path id="Vector_24" d="M217.982 94.4779C216.429 95.2034 214.87 95.8747 213.312 96.5804C211.754 97.2862 210.191 97.9377 208.627 98.604C207.064 99.2703 205.363 99.9811 203.734 100.657L203.586 100.726L199.253 102.503L199.039 102.582L198.922 102.4C198.11 101.083 197.302 99.7787 196.498 98.4856L196.416 98.3523C195.5 96.8717 194.593 95.391 193.697 93.9103C192.801 92.4296 191.986 91.0526 191.151 89.6114C190.316 88.1702 189.465 86.7241 188.646 85.2533C189.593 86.5908 190.499 87.9679 191.421 89.3251C192.342 90.6824 193.249 92.0743 194.15 93.4612C195.169 95.0011 196.167 96.5541 197.144 98.1204C197.893 99.2852 198.631 100.46 199.375 101.63C200.683 101.101 201.997 100.573 203.306 100.06C205.058 99.3625 206.808 98.6748 208.556 97.997C210.119 97.3899 211.693 96.7927 213.261 96.2053C214.83 95.618 216.408 95.0109 217.982 94.4779Z" fill="white"/>
<path id="Vector_25" d="M197.037 98.5201H196.992L196.401 98.757C195.464 99.1272 194.517 99.4628 193.559 99.7836C192.393 100.183 191.217 100.544 190.036 100.899C188.854 101.254 187.668 101.575 186.471 101.886C185.274 102.197 184.068 102.478 182.851 102.701C183.991 102.207 185.152 101.812 186.318 101.417C187.484 101.022 188.671 100.662 189.847 100.307C191.024 99.9515 192.22 99.6257 193.412 99.3197C194.364 99.0729 195.326 98.8261 196.299 98.6485L196.976 98.5201H197.037Z" fill="white"/>
<path id="Vector_26" d="M212.06 111.91C211.209 111.032 210.405 110.114 209.626 109.186C208.847 108.258 208.098 107.315 207.329 106.363C206.56 105.41 205.858 104.438 205.155 103.451C204.579 102.651 204.014 101.842 203.485 101.013C203.373 100.83 203.261 100.657 203.149 100.48C203.141 100.466 203.133 100.453 203.123 100.44L203.159 100.475L203.627 100.968C204.294 101.679 204.931 102.414 205.562 103.155C206.346 104.083 207.09 105.03 207.849 105.983C208.607 106.935 209.325 107.908 210.028 108.895C210.731 109.882 211.423 110.874 212.06 111.91Z" fill="white"/>
</g>
<g id="Table">
<path id="Vector_27" d="M3.63086 216.801L29.8099 216.683L55.9889 216.638L108.347 216.554L160.705 216.638L186.884 216.683L213.063 216.801L186.884 216.919L160.705 216.963L108.347 217.047L55.9889 216.963L29.8099 216.919L3.63086 216.801Z" fill="#263238"/>
</g>
<g id="Character">
<path id="Vector_28" d="M67.793 168.388C67.793 168.388 79.6374 210.573 82.4942 216.801H128.436C120.508 196.679 112.116 170.348 111.876 168.517C111.876 168.433 111.876 168.388 111.876 168.388H67.793Z" fill="#37474F"/>
<path id="Vector_29" d="M74.2295 174C74.5197 177.425 87.3725 213.855 88.452 216.801H89.114C89.114 216.801 75.1563 176.498 74.4077 174C74.3874 173.896 74.2295 173.896 74.2295 174Z" fill="#263238"/>
<path id="Vector_30" d="M105.496 168.383L99.5633 206.259L99.3545 207.542L98.8453 210.967L98.8045 211.209L98.6619 212.122L97.9338 216.786H82.4942C79.6425 210.558 67.793 168.368 67.793 168.368L105.496 168.383Z" fill="#263238"/>
<path id="Vector_31" d="M44.7555 216.801H88.2277C88.2277 216.624 88.2583 216.481 88.2634 216.362C88.2685 216.244 88.2888 216.076 88.2888 216.076L89.017 215.696C91.5631 214.343 93.819 213.292 95.6674 212.493C95.9832 212.359 96.2836 212.231 96.5789 212.098C97.4141 211.747 98.1626 211.451 98.7839 211.214C100.388 210.602 101.274 210.326 101.274 210.326C101.33 210.198 101.376 210.074 101.422 209.946C107.721 194.404 111.519 170.723 111.876 168.517C111.876 168.398 111.876 168.349 111.876 168.349H49.7866C46.0999 179.553 38.6907 200.154 44.7555 216.801Z" fill="#37474F"/>
<path id="Vector_32" d="M103.495 209.215C98.2295 210.972 93.1475 213.465 88.2895 216.081C88.2554 216.103 88.2305 216.136 88.2194 216.175C88.2082 216.213 88.2115 216.254 88.2287 216.29C88.2458 216.326 88.2757 216.355 88.313 216.372C88.3502 216.389 88.3924 216.392 88.4321 216.382C93.5548 214.25 98.7743 212.211 103.77 209.808C103.844 209.768 103.9 209.703 103.927 209.625C103.954 209.548 103.949 209.463 103.915 209.388C103.88 209.314 103.817 209.254 103.74 209.222C103.662 209.19 103.574 209.188 103.495 209.215Z" fill="#263238"/>
<path id="Vector_33" d="M105.124 175.145C105.124 174.972 104.798 174.933 104.798 175.12C104.839 181.014 104.452 186.201 103.943 191.709C103.703 194.266 101.58 208.401 97.0021 207.369C96.2382 207.197 95.8461 206.466 95.729 205.351C95.5813 204.003 96.1058 202.35 96.335 201.012C96.8442 198.051 97.2516 195.09 97.5113 192.099C98.0436 186.534 97.9822 180.93 97.328 175.377C97.328 175.339 97.3124 175.303 97.2847 175.276C97.257 175.249 97.2195 175.234 97.1803 175.234C97.1411 175.234 97.1036 175.249 97.0759 175.276C97.0482 175.303 97.0326 175.339 97.0326 175.377C97.0326 183.101 96.8289 190.811 95.6374 198.461C95.067 202.138 93.1575 207.671 97.1243 208.238C101.091 208.806 103.765 199.556 104.274 197.02C105.644 189.947 105.7 182.331 105.124 175.145Z" fill="#263238"/>
<path id="Vector_34" d="M97.1442 207.75C96.7418 208.705 96.4016 209.684 96.1257 210.681C95.8306 211.452 95.6856 212.268 95.698 213.09C95.7058 213.122 95.7228 213.151 95.747 213.174C95.7713 213.197 95.8017 213.212 95.8349 213.219C95.868 213.226 95.9024 213.223 95.934 213.212C95.9657 213.2 95.9933 213.18 96.0137 213.154C96.5535 212.498 96.7775 211.594 97.078 210.81C97.4293 209.906 97.796 209.008 98.0964 208.09C98.1307 207.971 98.1174 207.843 98.0591 207.733C98.0009 207.623 97.902 207.538 97.7821 207.495C97.6622 207.452 97.53 207.454 97.4119 207.502C97.2937 207.549 97.1981 207.637 97.1442 207.75Z" fill="#263238"/>
<path id="Vector_35" d="M76.4196 179.77C76.4322 179.152 76.3672 178.536 76.2261 177.934C76.2196 177.915 76.2072 177.899 76.1908 177.888C76.1744 177.876 76.1546 177.87 76.1344 177.87C76.1142 177.87 76.0944 177.876 76.078 177.888C76.0615 177.899 76.0492 177.915 76.0427 177.934C75.9127 178.453 75.841 178.984 75.8289 179.518C75.7627 180.125 75.6812 180.732 75.615 181.344C75.4803 182.589 75.2556 183.822 74.9428 185.036C74.3644 187.332 73.1575 189.435 71.4496 191.122C69.753 192.74 67.7464 194.021 65.5426 194.892C63.0831 195.88 60.4962 196.274 57.9603 197C57.9386 197.007 57.9202 197.021 57.9084 197.04C57.8966 197.059 57.8921 197.082 57.8958 197.104C57.8994 197.126 57.911 197.146 57.9284 197.16C57.9458 197.174 57.968 197.182 57.9909 197.183C60.8057 197.176 63.5928 196.643 66.1995 195.613C68.5061 194.775 70.6053 193.477 72.3611 191.803C74.1263 190.074 75.3696 187.909 75.9562 185.544C76.2505 184.33 76.4211 183.09 76.4654 181.843C76.4932 181.151 76.4779 180.459 76.4196 179.77Z" fill="#263238"/>
<path id="Vector_36" d="M50.8511 216.801C49.5577 213.154 48.7533 209.36 48.4578 205.514C48.1217 201.667 48.1013 197.8 48.3967 193.95C48.6004 192.035 48.7531 190.11 49.0892 188.21C49.2522 187.257 49.3693 186.3 49.5984 185.357L50.2095 182.529C50.3164 182.035 50.4081 181.586 50.5252 181.117L50.9122 179.72L51.6913 176.937C51.9663 176.014 52.3126 175.111 52.6181 174.197C52.9237 173.284 53.2547 172.376 53.5856 171.473C53.1477 173.349 52.6079 175.19 52.1751 177.06L51.5335 179.864L51.2229 181.265C51.121 181.734 51.0497 182.203 50.9632 182.677L50.4539 185.5C50.2757 186.438 50.184 187.39 50.0466 188.333C49.741 190.218 49.5984 192.123 49.41 194.024C49.1164 197.827 49.062 201.645 49.2471 205.454C49.3031 206.407 49.3489 207.36 49.4559 208.307L49.5883 209.734L49.7716 211.155C50.0061 213.058 50.3667 214.944 50.8511 216.801Z" fill="#263238"/>
<path id="Vector_37" d="M89.8727 111.338C98.2035 124.6 114.697 145.492 122.656 150.141C131.501 155.309 156.774 137.768 173.14 127.265C176.389 125.177 161.235 99.7146 157.864 102.094C149.11 108.367 131.008 122.937 128.604 122.443C126.638 122.038 109.926 110.756 100.561 104.29C85.6818 94.0141 84.0065 102.005 89.8727 111.338Z" fill="#D3766A"/>
<path id="Vector_38" d="M151.473 105.83L165.527 135.093C165.527 135.093 134.928 154.485 125.411 152.126C115.894 149.766 95.6674 122.611 89.735 111.95C83.8025 101.289 86.5625 95.3022 98.0607 102.454C109.559 109.606 127.259 121.041 129.123 121.101C130.987 121.16 151.473 105.83 151.473 105.83Z" fill="#00AB9B" fill-opacity="0.37"/>
<path id="Vector_39" d="M156.861 138.587C152.843 126.085 146.676 113.534 145.739 111.274C145.698 111.17 145.525 111.249 145.571 111.353C146.59 113.524 152.054 128.627 156.677 138.676C156.723 138.79 156.901 138.706 156.861 138.587Z" fill="#263238"/>
<path id="Vector_40" opacity="0.1" d="M134.628 150.907C130.951 152.111 127.677 152.678 125.411 152.116C115.894 149.757 95.6623 122.611 89.7299 111.955C87.1838 107.394 86.2468 103.693 86.8986 101.496C98.3001 113.371 124.978 140.947 134.628 150.907Z" fill="black"/>
<path id="Vector_41" d="M164.046 133.153L151.575 106.817C152.013 106.269 153.887 105.183 155.736 103.495C155.736 103.495 160.583 97.0296 162.539 90.0162C164.189 84.1231 165.945 75.2094 169.25 75.935C174.067 77.006 173.243 88.5552 172.356 95.1837C175.819 93.8314 178.936 92.9825 180.932 93.1305C187.552 93.6241 189.079 122.66 183.478 126.362C178.07 129.881 167.717 133.666 164.046 133.153Z" fill="#D3766A"/>
<path id="Vector_42" d="M182.032 135.878L138.03 132.694L142.359 76.4977L186.36 79.6861L182.032 135.878Z" fill="#455A64"/>
<path id="Vector_43" d="M181.909 82.9828L146.251 80.4023L142.478 129.385L178.136 131.965L181.909 82.9828Z" fill="white"/>
<path id="Vector_44" d="M159.612 81.3687L146.252 80.4019L142.479 129.384L155.839 130.351L159.612 81.3687Z" fill="#EBEBEB"/>
<path id="Vector_45" d="M154.254 90.954C153.752 91.2113 153.194 91.3489 152.627 91.3551C152.059 91.3614 151.498 91.2362 150.991 90.99C150.483 90.7438 150.044 90.3837 149.709 89.9396C149.374 89.4955 149.153 88.9803 149.065 88.4368C148.963 87.8098 149.042 87.1678 149.292 86.5812C149.542 85.9946 149.954 85.4861 150.482 85.1115C151.011 84.7369 151.636 84.5107 152.288 84.4576C152.941 84.4046 153.596 84.5268 154.181 84.8109C154.767 85.095 155.261 85.5299 155.608 86.068C155.955 86.606 156.143 87.2264 156.15 87.8611C156.158 88.4957 155.985 89.1201 155.65 89.6657C155.316 90.2113 154.832 90.657 154.254 90.954Z" fill="#A6A6A6"/>
<path id="Vector_46" d="M153.719 87.5682C153.705 87.7776 153.626 87.9781 153.494 88.1444C153.362 88.3106 153.182 88.4352 152.977 88.5022C152.772 88.5693 152.551 88.5759 152.342 88.5211C152.132 88.4664 151.945 88.3528 151.802 88.1947C151.66 88.0366 151.569 87.8412 151.541 87.633C151.513 87.4249 151.55 87.2134 151.646 87.0254C151.742 86.8373 151.894 86.6812 152.082 86.5766C152.269 86.472 152.485 86.4238 152.701 86.438C152.991 86.457 153.261 86.5867 153.452 86.7987C153.643 87.0106 153.739 87.2874 153.719 87.5682Z" fill="white"/>
<path id="Vector_47" d="M154.284 90.5295L154.253 90.9688C153.661 91.2642 152.996 91.3947 152.332 91.3459C151.667 91.2972 151.03 91.0709 150.49 90.6924L150.526 90.2581C150.544 90.0189 150.611 89.7856 150.722 89.5714C150.834 89.3573 150.988 89.1665 151.175 89.01C151.363 88.8535 151.58 88.7343 151.815 88.6592C152.05 88.5842 152.298 88.5547 152.545 88.5726C152.792 88.5904 153.032 88.6551 153.253 88.7631C153.474 88.8711 153.671 89.0202 153.833 89.202C153.994 89.3837 154.117 89.5944 154.194 89.8222C154.272 90.05 154.302 90.2903 154.284 90.5295Z" fill="white"/>
<path id="Vector_48" d="M171.273 86.3771L161.65 85.6807L161.601 86.3254L171.224 87.0218L171.273 86.3771Z" fill="#EBEBEB"/>
<path id="Vector_49" d="M178.146 88.6645L161.516 87.4609L161.466 88.1057L178.097 89.3092L178.146 88.6645Z" fill="#EBEBEB"/>
<path id="Vector_50" d="M174.303 90.1787L161.379 89.2434L161.329 89.8882L174.253 90.8234L174.303 90.1787Z" fill="#EBEBEB"/>
<path id="Vector_51" d="M168.565 93.3527L161.105 92.8129L161.056 93.4576L168.515 93.9975L168.565 93.3527Z" fill="#EBEBEB"/>
<path id="Vector_52" d="M173.892 95.5289L160.969 94.5936L160.919 95.2384L173.843 96.1736L173.892 95.5289Z" fill="#EBEBEB"/>
<path id="Vector_53" d="M177.463 97.5782L160.832 96.3746L160.782 97.0194L177.413 98.2229L177.463 97.5782Z" fill="#EBEBEB"/>
<path id="Vector_54" d="M170.312 98.8539L160.689 98.1575L160.64 98.8022L170.263 99.4986L170.312 98.8539Z" fill="#EBEBEB"/>
<path id="Vector_55" d="M178.078 102.372L161.401 101.24L161.355 101.887L178.032 103.018L178.078 102.372Z" fill="#EBEBEB"/>
<path id="Vector_56" d="M172.349 104.38L160.283 103.507L160.234 104.152L172.299 105.025L172.349 104.38Z" fill="#EBEBEB"/>
<path id="Vector_57" d="M169.103 105.938L160.146 105.289L160.096 105.934L169.054 106.582L169.103 105.938Z" fill="#EBEBEB"/>
<path id="Vector_58" d="M174.988 108.154L160.008 107.07L159.958 107.715L174.938 108.799L174.988 108.154Z" fill="#EBEBEB"/>
<path id="Vector_59" d="M171.798 111.507L159.732 110.634L159.683 111.279L171.748 112.152L171.798 111.507Z" fill="#EBEBEB"/>
<path id="Vector_60" d="M176.229 113.623L159.599 112.42L159.549 113.064L176.18 114.268L176.229 113.623Z" fill="#EBEBEB"/>
<path id="Vector_61" d="M174.3 117.067L159.319 115.983L159.27 116.628L174.25 117.712L174.3 117.067Z" fill="#EBEBEB"/>
<path id="Vector_62" d="M168.056 118.413L159.185 117.771L159.135 118.416L168.006 119.058L168.056 118.413Z" fill="#EBEBEB"/>
<path id="Vector_63" d="M176.78 120.254L160.104 119.122L160.057 119.769L176.734 120.9L176.78 120.254Z" fill="#EBEBEB"/>
<path id="Vector_64" d="M170.837 123.994L158.771 123.12L158.722 123.765L170.787 124.638L170.837 123.994Z" fill="#EBEBEB"/>
<path id="Vector_65" d="M176.39 125.616L159.713 124.484L159.666 125.131L176.343 126.262L176.39 125.616Z" fill="#EBEBEB"/>
<path id="Vector_66" d="M174.605 127.295L159.583 126.276L159.536 126.923L174.558 127.942L174.605 127.295Z" fill="#EBEBEB"/>
<path id="Vector_67" d="M153.896 93.5363L149.466 93.2357L149.419 93.8823L153.849 94.1829L153.896 93.5363Z" fill="#A6A6A6"/>
<path id="Vector_68" d="M155.773 96.0104L148.42 95.4783L148.37 96.123L155.723 96.6552L155.773 96.0104Z" fill="#A6A6A6"/>
<path id="Vector_69" d="M154.426 97.7048L148.281 97.2601L148.232 97.9049L154.376 98.3496L154.426 97.7048Z" fill="#A6A6A6"/>
<path id="Vector_70" d="M155.363 101.36L148.01 100.828L147.96 101.473L155.313 102.005L155.363 101.36Z" fill="#A6A6A6"/>
<path id="Vector_71" d="M155.682 103.17L147.872 102.605L147.822 103.25L155.632 103.815L155.682 103.17Z" fill="#A6A6A6"/>
<path id="Vector_72" d="M153.211 104.788L147.731 104.392L147.682 105.037L153.161 105.433L153.211 104.788Z" fill="#A6A6A6"/>
<path id="Vector_73" d="M155.046 106.196L148.554 105.756L148.507 106.402L155 106.843L155.046 106.196Z" fill="#A6A6A6"/>
<path id="Vector_74" d="M175.764 75.6335L153.461 74.0195L152.871 81.678L175.174 83.292L175.764 75.6335Z" fill="#A6A6A6"/>
<path id="Vector_75" d="M172.316 78.3781L156.448 77.2281L156.907 71.2856L172.774 72.4307L172.316 78.3781Z" fill="#A6A6A6"/>
<path id="Vector_76" d="M170.543 94.3003C169.102 97.3554 173.639 97.2617 173.639 97.2617C173.639 97.2617 167.147 98.92 166.907 102.627C166.699 106.2 172.173 105.889 172.565 105.869C172.224 105.963 166.296 107.651 166.454 111.392C166.627 115.286 172.056 114.062 172.417 113.978C172.122 114.166 168.257 116.668 169.046 119.487C170.411 124.328 180.483 118.184 184.527 119.255C184.527 119.255 183.447 126.105 183.457 126.308C183.457 126.308 193.158 120.651 194.339 115.286C194.522 114.509 194.426 113.694 194.067 112.976C193.707 112.258 193.107 111.68 192.363 111.338C192.363 111.338 195.699 109.857 195.668 106.896C195.643 105.381 193.122 104.063 193.122 104.063C193.122 104.063 195.745 102.765 195.546 100.139C195.393 98.0464 192.888 97.0494 192.888 97.0494C192.888 97.0494 194.808 94.6705 193.937 92.5827C192.2 88.3579 173.634 87.7705 170.543 94.3003Z" fill="#D3766A"/>
<path id="Vector_77" d="M192.537 96.8372C192.547 96.8339 192.556 96.8277 192.562 96.8192C192.568 96.8108 192.572 96.8007 192.572 96.7903C192.572 96.7799 192.568 96.7698 192.562 96.7614C192.556 96.7529 192.547 96.7467 192.537 96.7434C186.477 95.1048 179.297 95.1048 173.375 97.237C173.176 97.3061 173.212 97.6466 173.441 97.6071C180.01 96.541 185.907 96.1067 192.537 96.8372Z" fill="#263238"/>
<path id="Vector_78" d="M193.234 104.028C193.305 104.028 193.321 103.925 193.234 103.905C186.986 102.247 178.905 102.464 172.356 105.697C172.132 105.81 172.045 106.126 172.31 106.017C176.847 104.186 187.276 103.362 193.234 104.028Z" fill="#263238"/>
<path id="Vector_79" d="M172.056 114.358C178.452 111.491 185.154 110.904 192.125 111.249C192.216 111.249 192.211 111.131 192.125 111.106C188.759 110.035 184.293 110.257 180.83 110.721C177.609 111.087 174.543 112.267 171.939 114.141C171.853 114.22 171.924 114.418 172.056 114.358Z" fill="#263238"/>
<path id="Vector_80" d="M111.856 168.388L110.058 149.337C110.058 149.337 115.308 141.558 114.54 132.368C113.985 125.676 94.2726 102.261 93.0046 101.136C87.9124 96.5312 79.3117 98.3672 75.7828 100.953C56.2389 115.267 56.4069 138.153 49.8125 168.349L111.856 168.388Z" fill="#00AB9B" fill-opacity="0.37"/>
<path id="Vector_81" d="M111.856 168.388L110.058 149.337C110.058 149.337 116.821 140.601 114.54 132.368C112.258 124.136 105.537 116.624 105.537 116.624H76.4703C76.4703 116.624 73.8376 141.272 67.1821 145.467C63.1411 148.079 58.2099 149.063 53.4331 148.212L49.7871 168.349L111.856 168.388Z" fill="#37474F"/>
<path id="Vector_82" d="M91.5127 146.844C94.3281 146.685 97.1518 146.728 99.9606 146.973C101.356 147.111 102.731 147.313 104.111 147.54C104.803 147.659 105.491 147.748 106.178 147.837C106.9 147.951 107.634 147.979 108.363 147.92C108.376 147.92 108.389 147.926 108.399 147.935C108.408 147.944 108.414 147.957 108.414 147.97C108.414 147.983 108.408 147.995 108.399 148.005C108.389 148.014 108.376 148.019 108.363 148.019C107.025 148.3 105.648 148.362 104.289 148.202C102.873 148.073 101.468 147.881 100.052 147.738C97.2007 147.447 94.349 147.16 91.4821 147.071C91.3803 147.067 91.3803 146.854 91.5127 146.844Z" fill="#263238"/>
<path id="Vector_83" d="M85.0148 150.22C87.267 149.658 89.5502 149.219 91.8536 148.908C93.0096 148.755 94.1604 148.666 95.3265 148.606C95.8765 148.582 96.4366 148.562 96.9917 148.552C97.5467 148.542 98.2138 148.606 98.8249 148.587C98.8911 148.587 98.9012 148.681 98.8249 148.681C98.2494 148.72 97.674 148.848 97.1037 148.917L95.3774 149.12C94.2266 149.258 93.0808 149.411 91.9249 149.539C89.6181 149.796 87.3419 150.072 85.025 150.403C84.9231 150.423 84.9231 150.25 85.0148 150.22Z" fill="#263238"/>
<path id="Vector_84" d="M79.9375 109.053C76.3424 114.013 49.1297 145.359 41.4455 150.097C35.6048 153.705 20.2518 155.906 21.041 141.859C21.5503 132.482 60.2511 106.027 75.8638 99.6158C83.0387 96.6495 87.4689 98.6484 79.9375 109.053Z" fill="#00AB9B" fill-opacity="0.37"/>
<path id="Vector_85" d="M27.2031 152.279C29.4956 152.881 31.8972 152.984 34.2355 152.58C36.5588 152.212 38.7893 151.421 40.8095 150.25C41.8156 149.661 42.7755 149.001 43.6815 148.276C44.5879 147.555 45.4536 146.77 46.3091 145.981C48.015 144.387 49.6649 142.728 51.2893 141.045C54.5686 137.719 57.736 134.274 60.9084 130.843L70.3901 120.479C68.9389 122.305 67.4316 124.087 65.9345 125.908C64.4374 127.729 62.8791 129.456 61.3515 131.218C58.2656 134.726 55.0898 138.168 51.8239 141.544C50.1741 143.217 48.5038 144.865 46.7674 146.455C45.8966 147.244 45.0157 148.029 44.0787 148.764C43.1412 149.507 42.1375 150.168 41.0794 150.739C38.9745 151.891 36.6619 152.643 34.266 152.955C33.0833 153.095 31.8888 153.117 30.7015 153.019C29.5056 152.93 28.3283 152.681 27.2031 152.279Z" fill="#263238"/>
<path id="Vector_86" d="M66.749 124.689C67.373 124.194 68.0241 123.733 68.6993 123.307L70.7006 122.009C70.2102 122.644 69.6045 123.188 68.9132 123.613C68.2421 124.059 67.5148 124.421 66.749 124.689Z" fill="#263238"/>
<path id="Vector_87" d="M76.4699 116.624H80.9103C81.0865 110.433 80.1774 104.258 78.2216 98.3623L75.3496 99.0681C75.3496 99.0681 78.1758 110.479 76.4699 116.624Z" fill="#37474F"/>
<path id="Vector_88" d="M94.507 100.07C94.507 100.07 100.495 108.431 105.537 116.624H102.716L91.416 98.92L94.507 100.07Z" fill="#37474F"/>
<path id="Vector_89" d="M79.8308 101.585C80.1822 102.78 85.7989 109.803 91.5022 109.275C93.3608 109.102 93.5747 99.8035 93.5747 99.8035L93.7071 99.0632L95.5556 88.7429L82.7996 81.6455L80.9613 80.7078C80.9613 80.7078 80.6507 83.5655 80.2942 87.124C80.2942 87.2869 80.2637 87.4547 80.2484 87.6176C80.2331 87.7804 80.1924 88.0075 80.1771 88.195C80.1211 88.7231 80.06 89.2661 80.0141 89.809C79.9785 90.2236 79.9378 90.6233 79.9174 91.0577C79.897 91.492 79.8563 91.9115 79.8206 92.3508C79.5762 96.6448 79.6933 101.072 79.8308 101.585Z" fill="#D3766A"/>
<path id="Vector_90" d="M80.2949 87.1092C81.5024 89.9262 83.3281 92.4547 85.6452 94.519C87.9623 96.5833 90.7153 98.1339 93.7129 99.0632L95.5614 88.7429L82.8003 81.6455L80.962 80.7078C80.962 80.7078 80.6514 83.5507 80.2949 87.1092Z" fill="#263238"/>
<path id="Vector_91" d="M84.1442 79.7108C80.7477 77.5046 71.2049 74.2569 66.1636 81.4432C58.9632 91.6944 74.5556 109.675 75.3551 119.126C76.8063 136.248 85.9825 145.862 94.1249 141.08C103.255 135.72 102.685 121.13 85.5547 104.68C74.8611 94.3892 73.2112 86.8723 75.6759 85.1448C78.1405 83.4174 81.9749 84.9425 81.9749 84.9425L84.1442 79.7108Z" fill="#263238"/>
<path id="Vector_92" d="M82.7944 78.9507C81.0471 78.0788 79.1969 77.4158 77.2846 76.9764C75.3384 76.5076 73.3128 76.437 71.3369 76.7691C69.3096 77.1242 67.4494 78.0896 66.0206 79.5281C64.5963 80.9549 63.5482 82.6937 62.9653 84.597C62.4442 86.5001 62.3488 88.4891 62.6852 90.4308C63.023 92.3291 63.5834 94.1837 64.3555 95.9587C65.9248 99.4519 67.8942 102.763 70.2268 105.83C68.2709 102.573 66.5688 99.1797 65.1346 95.6774C64.4727 93.9358 63.9966 92.1332 63.7139 90.2976C63.4255 88.4965 63.5313 86.6568 64.0245 84.898C64.5397 83.1544 65.4773 81.5554 66.759 80.2339C68.0227 78.9061 69.6752 77.9847 71.4948 77.5934C73.3596 77.2042 75.2849 77.1723 77.1624 77.4996C78.1193 77.6372 79.0665 77.8317 79.9987 78.082C80.9425 78.3354 81.8744 78.6249 82.7944 78.9507Z" fill="#263238"/>
<path id="Vector_93" d="M79.7959 98.8707C81.3745 100.618 83.1466 102.187 84.8525 103.806C86.5584 105.425 88.2948 107.014 89.9447 108.663C91.5945 110.311 93.2241 112.009 94.6957 113.801C96.1958 115.563 97.5125 117.464 98.6269 119.477C99.7557 121.452 100.49 123.615 100.791 125.854C101.003 128.107 100.806 130.378 100.211 132.566C99.6265 134.768 98.5152 136.805 96.9668 138.513C96.1889 139.373 95.2988 140.132 94.3189 140.769C93.8304 141.086 93.3199 141.369 92.7912 141.618C92.2626 141.886 91.6965 142.079 91.1108 142.19C92.3081 142.024 93.4572 141.621 94.4869 141.006C95.5415 140.421 96.5122 139.704 97.3742 138.874C98.2339 138.029 98.9815 137.084 99.5995 136.06C100.212 135.03 100.701 133.936 101.056 132.798C101.411 131.672 101.653 130.515 101.779 129.343L101.86 128.455L101.896 127.571C101.922 126.972 101.905 126.372 101.845 125.775C101.558 123.4 100.803 121.101 99.6199 119.003C97.3029 114.823 94.0184 111.313 90.5659 108.095C88.8346 106.481 87.0319 104.951 85.214 103.446C83.3961 101.941 81.5527 100.445 79.7959 98.8707Z" fill="#263238"/>
<path id="Vector_94" d="M84.7047 79.2715C84.0274 78.4029 82.4896 77.7908 81.797 78.0968C81.1045 78.4029 78.37 83.4174 78.8792 84.7401C79.3884 86.0629 82.016 85.5249 82.016 85.5249L84.7047 79.2715Z" fill="#00AB9B" fill-opacity="0.37"/>
<path id="Vector_95" d="M109.498 70.5305C113.496 88.501 102.848 92.8492 98.8453 93.6834C95.2145 94.4336 82.759 96.5608 76.8673 79.0888C70.9756 61.6169 78.3287 54.1346 86.5425 51.9826C94.7562 49.8307 105.501 52.5601 109.498 70.5305Z" fill="#D3766A"/>
<path id="Vector_96" d="M103.428 67.8802C102.993 67.8745 102.558 67.8465 102.125 67.7963C101.659 67.8317 101.195 67.7153 100.806 67.4656C100.7 67.3647 100.631 67.2327 100.609 67.09C100.588 66.9472 100.616 66.8017 100.689 66.6759C100.873 66.4488 101.117 66.2734 101.394 66.1676C101.671 66.0618 101.973 66.0294 102.267 66.0738C102.878 66.0759 103.466 66.2975 103.917 66.6956C104.015 66.792 104.083 66.9141 104.11 67.0468C104.138 67.1796 104.125 67.3173 104.073 67.4431C104.021 67.5688 103.933 67.6772 103.818 67.7548C103.704 67.8324 103.568 67.876 103.428 67.8802Z" fill="#263238"/>
<path id="Vector_97" d="M90.4331 72.5492C90.8518 72.4265 91.2632 72.2815 91.6654 72.1149C92.12 72.0194 92.5297 71.7818 92.8315 71.4387C92.905 71.3131 92.9334 71.1674 92.9122 71.0244C92.891 70.8815 92.8214 70.7494 92.7144 70.649C92.4727 70.4805 92.1889 70.378 91.8925 70.3519C91.596 70.3259 91.2978 70.3773 91.0288 70.5009C90.4411 70.6657 89.9392 71.0394 89.6234 71.5473C89.558 71.6662 89.5297 71.801 89.5418 71.9353C89.554 72.0695 89.6061 72.1975 89.6918 72.3036C89.7776 72.4097 89.8932 72.4894 90.0248 72.533C90.1564 72.5766 90.2982 72.5822 90.4331 72.5492Z" fill="#263238"/>
<path id="Vector_98" d="M93.6154 74.7899C93.6154 74.7455 93.5237 74.864 93.5339 74.9133C93.7885 76.1423 93.8649 77.5933 92.7854 78.1856C92.7497 78.1856 92.7854 78.2695 92.7854 78.2547C94.1806 77.8352 94.0584 75.9152 93.6154 74.7899Z" fill="#263238"/>
<path id="Vector_99" d="M92.2563 73.6843C90.1838 73.8669 90.7287 77.8746 92.6332 77.7068C94.5377 77.539 93.9928 73.5362 92.2563 73.6843Z" fill="#263238"/>
<path id="Vector_100" d="M91.4722 74.0002C91.1412 74.2716 90.8407 74.7158 90.4079 74.8096C89.9751 74.9034 89.476 74.548 89.0941 74.1828C89.0534 74.1482 89.0228 74.1828 89.0279 74.2371C89.1196 75.007 89.5371 75.7572 90.3926 75.7671C91.1819 75.7671 91.6453 75.0268 91.742 74.2321C91.7624 74.0841 91.6046 73.8866 91.4722 74.0002Z" fill="#263238"/>
<path id="Vector_101" d="M101.29 73.1908C101.29 73.1414 101.397 73.2401 101.397 73.2944C101.443 74.5431 101.718 75.9695 102.924 76.3051C102.96 76.3051 102.96 76.3792 102.924 76.3742C101.473 76.2755 101.127 74.3803 101.29 73.1908Z" fill="#263238"/>
<path id="Vector_102" d="M102.348 71.8089C104.411 71.5177 104.859 75.5353 102.949 75.8018C101.04 76.0683 100.617 72.0508 102.348 71.8089Z" fill="#263238"/>
<path id="Vector_103" d="M103.184 71.9322C103.571 72.1247 103.973 72.485 104.411 72.485C104.849 72.485 105.256 72.0161 105.541 71.5769C105.572 71.5325 105.613 71.5769 105.618 71.6164C105.714 72.3863 105.5 73.2056 104.66 73.4129C103.896 73.6005 103.26 72.9736 102.975 72.2234C102.924 72.0852 103.031 71.8582 103.184 71.9322Z" fill="#263238"/>
<path id="Vector_104" d="M95.9682 84.3946C96.2992 84.6611 96.6404 85.0411 97.114 85.0411C97.5912 84.9934 98.0527 84.8488 98.4685 84.6167C98.5092 84.6167 98.555 84.6167 98.5296 84.6759C98.3668 84.9367 98.1339 85.1498 97.8559 85.2924C97.5778 85.4349 97.2651 85.5016 96.951 85.4853C96.6838 85.4388 96.4366 85.3171 96.2401 85.1354C96.0436 84.9538 95.9066 84.7202 95.846 84.4637C95.8205 84.3896 95.9173 84.3551 95.9682 84.3946Z" fill="#263238"/>
<path id="Vector_105" d="M100.668 79.1777C100.668 79.1777 101.178 80.994 101.325 81.8676C101.325 81.9465 101.127 82.0156 100.816 82.0749C100.816 82.0749 100.816 82.0749 100.78 82.0749C100.026 82.3147 99.2188 82.3495 98.4458 82.1755C97.6727 82.0014 96.9638 81.6252 96.396 81.0877C96.3771 81.0727 96.3651 81.051 96.3627 81.0274C96.3604 81.0038 96.3677 80.9802 96.3833 80.9619C96.3988 80.9436 96.4212 80.932 96.4456 80.9297C96.4699 80.9273 96.4942 80.9345 96.5131 80.9495C97.7739 81.5551 99.2024 81.7507 100.587 81.5073C100.617 81.2556 99.5684 78.4275 99.711 78.3979C100.42 78.3624 101.131 78.4188 101.824 78.5657C100.831 74.7554 99.2171 71.1277 98.2903 67.3175C98.2597 67.1793 98.4583 67.1102 98.5144 67.2286C100.485 70.9155 101.728 75.2786 102.853 79.1875C103.001 79.6959 101.05 79.2912 100.668 79.1777Z" fill="#263238"/>
<path id="Vector_106" d="M75.8029 78.6299C79.0262 78.8717 79.7646 72.3222 79.7646 72.3222C79.7646 72.3222 86.3132 72.3222 88.4774 63.2111C88.4774 63.2111 88.3348 67.4606 85.5748 70.7576C85.5748 70.7576 97.1239 69.5731 101.987 60.2053C101.987 60.2053 100.047 64.978 98.2289 66.6759C98.2289 66.6759 103.072 65.363 105.434 61.5527C105.434 61.5527 107.471 66.9819 108.999 68.4626C108.999 68.4626 108.525 48.8782 89.8064 50.961C89.8064 50.961 78.0943 51.7161 73.878 60.7088C69.6617 69.7014 75.8029 78.6299 75.8029 78.6299Z" fill="#263238"/>
<path id="Vector_107" d="M80.1158 79.8539C80.1158 79.8539 75.268 74.6617 72.7881 76.399C70.3082 78.1363 74.4737 86.0184 77.753 86.7637C78.1662 86.8873 78.6009 86.9285 79.0309 86.8848C79.461 86.8412 79.8774 86.7136 80.2552 86.5097C80.633 86.3059 80.9643 86.03 81.2292 85.6987C81.494 85.3675 81.6869 84.9876 81.7962 84.5822L80.1158 79.8539Z" fill="#D3766A"/>
<path id="Vector_108" d="M74.0411 78.6397C73.9902 78.6397 73.9902 78.7088 74.0411 78.7187C76.3479 79.311 77.7584 81.1421 78.8329 83.0867C78.0792 82.3809 77.1372 82.0601 76.1442 82.9435C76.0933 82.9929 76.1442 83.0719 76.2206 83.0521C76.5904 82.8858 77.0043 82.8345 77.4055 82.9052C77.8066 82.9759 78.1754 83.1651 78.4612 83.447C78.9347 83.924 79.3546 84.4485 79.7138 85.0116C79.8411 85.1892 80.1823 85.0412 80.0754 84.8339C80.0745 84.8174 80.0745 84.801 80.0754 84.7845C79.7495 82.0699 77.0812 78.541 74.0411 78.6397Z" fill="#263238"/>
<path id="Vector_109" d="M78.2217 86.8969C78.2217 87.0921 78.2814 87.283 78.3933 87.4453C78.5052 87.6077 78.6643 87.7342 78.8504 87.8089C79.0365 87.8836 79.2413 87.9031 79.4388 87.8651C79.6364 87.827 79.8178 87.733 79.9603 87.5949C80.1027 87.4569 80.1997 87.281 80.239 87.0895C80.2783 86.898 80.2581 86.6995 80.181 86.5192C80.104 86.3388 79.9734 86.1846 79.8059 86.0762C79.6385 85.9677 79.4415 85.9098 79.2401 85.9098C78.97 85.9098 78.711 86.0138 78.52 86.1989C78.329 86.384 78.2217 86.6351 78.2217 86.8969Z" fill="white"/>
<path id="Vector_110" d="M103.683 53.6311C101.478 53.7989 90.1735 57.7375 85.7688 61.4935C81.364 65.2494 74.6627 75.2785 74.3215 75.8067C73.9803 76.3348 65.4967 58.8381 79.6327 50.6895C95.0264 41.8104 103.683 53.6311 103.683 53.6311Z" fill="#00AB9B" fill-opacity="0.37"/>
<path id="Vector_111" d="M74.9473 74.7801C74.9473 74.7801 80.6913 58.7 85.3048 53.9865C89.9184 49.273 101.905 43.6218 110.766 44.4954C117.686 45.1666 105.455 57.3822 105.455 57.3822C105.455 57.3822 104.339 55.4079 102.145 55.2895C97.8775 55.0328 91.0794 58.4186 87.4384 61.0444C82.886 64.3709 74.9473 74.7801 74.9473 74.7801Z" fill="#00AB9B" fill-opacity="0.37"/>
<path id="Vector_112" opacity="0.2" d="M74.9473 74.7801C74.9473 74.7801 80.6913 58.7 85.3048 53.9865C89.9184 49.273 101.905 43.6218 110.766 44.4954C117.686 45.1666 105.455 57.3822 105.455 57.3822C105.455 57.3822 104.339 55.4079 102.145 55.2895C97.8775 55.0328 91.0794 58.4186 87.4384 61.0444C82.886 64.3709 74.9473 74.7801 74.9473 74.7801Z" fill="black"/>
<path id="Vector_113" d="M116.923 135.873H48.667V176.917H116.923V135.873Z" fill="#00AB9B" fill-opacity="0.37"/>
<path id="Vector_114" opacity="0.2" d="M116.923 135.873H48.667V176.917H116.923V135.873Z" fill="black"/>
<path id="Vector_115" opacity="0.2" d="M48.6715 176.917H74.5195V135.873H48.6715V176.917Z" fill="black"/>
<path id="Vector_116" d="M50.4492 174.089C52.3639 171.17 54.2616 168.242 56.1423 165.304L61.7437 156.479L67.279 147.595C69.1156 144.633 70.9335 141.672 72.7327 138.711C70.8181 141.626 68.9221 144.553 67.0447 147.491L61.4433 156.321L55.9081 165.205C54.0715 168.146 52.2519 171.108 50.4492 174.089Z" fill="#00AB9B" fill-opacity="0.37"/>
<path id="Vector_117" d="M50.4492 138.701C52.2519 141.662 54.0698 144.624 55.903 147.585L61.4382 156.469L67.0396 165.294C68.9136 168.235 70.8096 171.164 72.7276 174.079C70.9284 171.098 69.1105 168.128 67.2739 165.17L61.7386 156.286L56.1372 147.457C54.2633 144.538 52.3673 141.619 50.4492 138.701Z" fill="#00AB9B" fill-opacity="0.37"/>
<path id="Vector_118" d="M65.4713 135.873H57.6191V143.483H65.4713V135.873Z" fill="#EBEBEB"/>
<path id="Vector_119" d="M102.583 165.99H102.033V173.507H102.583V165.99Z" fill="#263238"/>
<path id="Vector_120" d="M103.902 165.99H103.352V173.507H103.902V165.99Z" fill="#263238"/>
<path id="Vector_121" d="M105.221 165.99H104.671V173.507H105.221V165.99Z" fill="#263238"/>
<path id="Vector_122" d="M106.539 165.99H105.989V173.507H106.539V165.99Z" fill="#263238"/>
<path id="Vector_123" d="M107.859 165.99H107.309V173.507H107.859V165.99Z" fill="#263238"/>
<path id="Vector_124" d="M109.178 165.99H108.628V173.507H109.178V165.99Z" fill="#263238"/>
<path id="Vector_125" d="M110.496 165.99H109.946V173.507H110.496V165.99Z" fill="#263238"/>
<path id="Vector_126" d="M111.816 165.99H111.266V173.507H111.816V165.99Z" fill="#263238"/>
<path id="Vector_127" d="M113.139 165.99H112.589V173.507H113.139V165.99Z" fill="#263238"/>
<path id="Vector_128" d="M96.6348 172.954L98.7481 173.521H93.7832L95.9016 172.944V170.185C94.3739 169.992 93.7832 168.541 93.7832 166.009H98.7481C98.7481 168.536 98.1472 169.992 96.6348 170.185V172.954Z" fill="#263238"/>
<path id="Vector_129" d="M92.6281 169.825H91.3296V173.502H88.0095V169.825H86.7109L89.6695 165.99L92.6281 169.825Z" fill="#263238"/>
<path id="Vector_130" opacity="0.1" d="M116.922 176.917V173.319L74.5195 166.656V176.912L116.922 176.917Z" fill="black"/>
<path id="Vector_131" d="M113.139 134.55H55.4238V135.873H113.139V134.55Z" fill="#EBEBEB"/>
<path id="Vector_132" d="M111.642 133.232H53.9268V134.555H111.642V133.232Z" fill="#C7C7C7"/>
<path id="Vector_133" d="M115.529 145.454L73.752 152.407L78.3011 178.084L120.078 171.131L115.529 145.454Z" fill="white"/>
<path id="Vector_134" d="M114.316 145.472C112.905 147.304 111.449 149.075 110.023 150.902C108.597 152.728 107.12 154.46 105.659 156.222C104.131 158.063 102.604 159.889 101.076 161.71L100.938 161.883C99.5787 163.487 98.2089 165.091 96.8646 166.695L96.6609 166.922L96.3961 166.769C94.5629 165.687 92.7331 164.601 90.9067 163.512L90.7132 163.398C88.6458 162.165 86.5783 160.931 84.516 159.657C82.5453 158.463 80.5746 157.239 78.609 156.02C76.6434 154.801 74.6779 153.552 72.7275 152.264C74.7644 153.305 76.7453 154.421 78.7516 155.502C80.758 156.582 82.7592 157.718 84.7553 158.848C86.9755 160.098 89.1974 161.37 91.421 162.663C93.0879 163.624 94.7513 164.588 96.4114 165.555C97.6539 164.119 98.9015 162.668 100.154 161.247C101.819 159.332 103.484 157.421 105.17 155.531C106.677 153.84 108.191 152.155 109.712 150.477C111.245 148.769 112.757 147.096 114.316 145.472Z" fill="#DBDBDB"/>
<path id="Vector_135" d="M91.5428 163.216L91.502 163.265C91.3136 163.482 91.1303 163.7 90.9419 163.912C90.0457 164.938 89.1189 165.93 88.1667 166.898C87.0107 168.097 85.8191 169.257 84.6021 170.412C83.3851 171.567 82.1731 172.677 80.9204 173.778C79.6678 174.879 78.3743 175.964 77.0605 176.986C78.135 175.708 79.2757 174.494 80.4316 173.304C81.5875 172.115 82.7842 170.95 83.9961 169.795C85.2081 168.64 86.4302 167.52 87.6829 166.414C88.7013 165.54 89.7198 164.667 90.7382 163.838C90.9826 163.64 91.222 163.453 91.4715 163.265L91.5428 163.216Z" fill="#DBDBDB"/>
<path id="Vector_136" d="M118.501 170.249C116.897 169.706 115.324 169.084 113.776 168.438C112.228 167.791 110.685 167.11 109.152 166.419C107.619 165.728 106.097 164.993 104.615 164.223C103.398 163.606 102.186 162.969 100.999 162.283L100.246 161.849C100.226 161.835 100.206 161.824 100.185 161.814H100.256C100.556 161.918 100.852 162.021 101.142 162.13C102.42 162.584 103.688 163.083 104.915 163.611C106.468 164.252 108.001 164.938 109.529 165.639C111.056 166.34 112.584 167.066 114.071 167.831C115.558 168.596 117.055 169.38 118.501 170.249Z" fill="#DBDBDB"/>
<path id="Vector_137" d="M83.6405 153.037L82.7812 178.96L124.959 180.273L125.818 154.35L83.6405 153.037Z" fill="#EBEBEB"/>
<path id="Vector_138" d="M125.819 154.347C124.062 155.877 122.279 157.333 120.507 158.833C118.735 160.334 116.943 161.765 115.15 163.216C113.283 164.733 111.416 166.233 109.549 167.717L109.376 167.86L104.385 171.809L104.136 171.996L103.907 171.794C102.335 170.382 100.763 168.967 99.1914 167.549C99.1334 167.504 99.079 167.454 99.0284 167.401C97.2462 165.802 95.4724 164.187 93.7071 162.555C92.0216 161.005 90.336 159.43 88.6607 157.856C86.9854 156.281 85.31 154.682 83.6602 153.049C85.4221 154.46 87.1585 155.936 88.9051 157.377C90.6518 158.818 92.3831 160.314 94.1094 161.819C96.0291 163.468 97.954 165.146 99.8687 166.834L104.172 170.619C105.699 169.45 107.201 168.265 108.714 167.11C110.751 165.55 112.777 164.002 114.794 162.466C116.617 161.094 118.445 159.731 120.278 158.379C122.137 157.012 123.965 155.645 125.819 154.347Z" fill="#C7C7C7"/>
<path id="Vector_139" d="M99.8991 167.396C99.8798 167.408 99.8626 167.423 99.8482 167.441L99.1811 167.964C98.0914 168.798 96.9813 169.593 95.8508 170.363C94.4759 171.315 93.0704 172.223 91.6599 173.126C90.2493 174.03 88.8184 174.888 87.3621 175.728C85.9057 176.567 84.4442 177.386 82.9268 178.131C84.2405 177.085 85.6053 176.112 87.0005 175.17C88.3958 174.227 89.7911 173.304 91.1965 172.406C92.602 171.508 94.043 170.634 95.4994 169.795C96.6554 169.124 97.8317 168.467 99.0334 167.855C99.3084 167.707 99.5885 167.569 99.8685 167.431L99.8991 167.396Z" fill="#C7C7C7"/>
<path id="Vector_140" d="M124.887 179.439C123.425 178.6 122.009 177.692 120.619 176.764C119.229 175.836 117.859 174.869 116.5 173.901C115.14 172.934 113.806 171.927 112.497 170.881C111.428 170.042 110.369 169.183 109.35 168.285C109.126 168.097 108.912 167.905 108.693 167.712L108.647 167.668C108.665 167.684 108.686 167.696 108.709 167.702L109.518 168.196C110.674 168.882 111.794 169.612 112.915 170.353C114.31 171.286 115.67 172.248 117.029 173.225C118.389 174.202 119.718 175.199 121.032 176.241C122.346 177.282 123.624 178.314 124.887 179.439Z" fill="#C7C7C7"/>
<path id="Vector_141" d="M80.9416 162.313C75.1365 157.313 41.7775 139.234 35.0201 136.973C28.2627 134.713 18.725 137.684 21.7804 147.531C24.8357 157.377 59.1012 186.453 72.0354 188.496C76.5827 189.241 83.0447 164.119 80.9416 162.313Z" fill="#D3766A"/>
<path id="Vector_142" d="M90.7741 171.058C89.445 170.071 89.9746 169.38 92.9637 169.356C95.9528 169.331 107.787 171.685 108.286 167.613C108.785 163.541 92.0522 160.452 87.0619 160.861C82.0715 161.271 74.2295 163.625 74.2295 163.625C77.3459 164.859 84.6583 168.561 90.7741 171.058Z" fill="#D3766A"/>
<path id="Vector_143" d="M67.416 186.867C76.3783 190.031 87.3367 194.502 97.9234 192.607C99.0976 192.423 100.174 191.862 100.979 191.013C105.74 190.248 106.794 187.839 106.794 187.839C111.005 185.806 111.733 183.2 111.733 183.2C111.733 183.2 117.335 182.242 117.274 178.876C117.243 175.106 109.411 177.188 104.385 175.787C92.8618 172.569 77.3967 164.874 74.1887 163.625L67.416 186.867Z" fill="#D3766A"/>
<path id="Vector_144" d="M89.8878 180.638C93.2995 181.522 96.6247 182.474 100.138 182.899C103.998 183.392 107.777 183.2 111.657 183.116C111.681 183.116 111.705 183.125 111.722 183.142C111.739 183.159 111.749 183.181 111.749 183.205C111.749 183.228 111.739 183.251 111.722 183.268C111.705 183.284 111.681 183.294 111.657 183.294C104.686 184.518 96.3498 183.442 89.8267 180.786C89.6841 180.722 89.7146 180.594 89.8878 180.638Z" fill="#263238"/>
<path id="Vector_145" d="M86.8734 187.099C90.2393 187.775 96.1666 188.93 106.804 187.726C106.84 187.726 106.855 187.78 106.804 187.79C100.229 189.413 93.3178 189.232 86.8428 187.267C86.634 187.193 86.6493 187.05 86.8734 187.099Z" fill="#263238"/>
<path id="Vector_146" d="M85.3204 190.598C91.0899 191.541 94.853 191.428 100.974 190.993C101.009 190.993 101.025 191.048 100.974 191.053C94.0739 192.257 91.4259 191.931 85.2491 190.786C85.0454 190.747 85.0963 190.559 85.3204 190.598Z" fill="#263238"/>
<path id="Vector_147" d="M82.6827 160.832L66.4742 191.709C66.4742 191.709 38.1106 175.732 22.9053 150.502C17.8385 142.111 22.9307 130.819 38.2939 136.85C53.6571 142.881 82.6827 160.832 82.6827 160.832Z" fill="#00AB9B" fill-opacity="0.37"/>
<path id="Vector_148" d="M76.1439 158.581C73.5978 163.097 63.7749 181.931 61.9417 186.142C61.8144 186.433 61.9723 186.586 62.1454 186.295C70.1708 172.968 74.0408 163.235 76.3221 158.685C76.3832 158.571 76.2101 158.468 76.1439 158.581Z" fill="#263238"/>
</g>
<g id="speech-bubble">
<path id="Vector_149" d="M154.218 50.9857C153.882 54.1082 152.658 57.0788 150.681 59.566C148.705 62.0531 146.054 63.959 143.025 65.0709C139.996 66.1828 136.708 66.457 133.528 65.8627C130.347 65.2685 127.4 63.8293 125.014 61.7058L116.266 62.9495L120.64 55.6202C119.638 53.2351 119.21 50.6599 119.388 48.0904C119.567 45.5209 120.348 43.0247 121.671 40.7915C122.994 38.5582 124.825 36.6468 127.025 35.2023C129.225 33.7578 131.735 32.8183 134.366 32.4552C136.996 32.0922 139.678 32.3151 142.206 33.107C144.734 33.8989 147.043 35.239 148.957 37.0254C150.871 38.8118 152.339 40.9976 153.251 43.4166C154.163 45.8356 154.493 48.4242 154.218 50.9857Z" fill="white"/>
<path id="Vector_150" d="M154.218 50.9856C153.882 54.1105 152.66 57.0843 150.689 59.5784C150.199 60.1979 149.67 60.788 149.105 61.3454C148.524 61.8873 147.909 62.3934 147.262 62.8606C145.973 63.8065 144.554 64.5724 143.046 65.1359C141.536 65.7058 139.953 66.0712 138.34 66.2217C137.533 66.2933 136.721 66.3082 135.911 66.2662C135.1 66.2501 134.291 66.1692 133.493 66.0243C130.266 65.4516 127.268 64.0175 124.836 61.8834L125.045 61.9475L116.306 63.2456L115.67 63.3394L115.991 62.7964L120.345 55.4572V55.7435C119.318 53.3153 118.882 50.691 119.068 48.0733C119.254 45.4555 120.059 42.9142 121.419 40.6456C122.78 38.3857 124.652 36.4537 126.893 34.9943C129.132 33.5561 131.678 32.6286 134.34 32.2815C137.002 31.9345 139.71 32.1769 142.261 32.9905C144.788 33.8211 147.092 35.1887 149.004 36.9932C150.908 38.7915 152.366 40.985 153.27 43.4086C154.173 45.8323 154.497 48.4229 154.218 50.9856ZM154.218 50.9856C154.493 48.4349 154.162 45.8569 153.249 43.4497C152.336 41.0426 150.865 38.8703 148.951 37.0997C147.037 35.3291 144.729 34.0074 142.206 33.236C139.682 32.4646 137.01 32.2641 134.394 32.6499C131.807 33.0291 129.343 33.9743 127.188 35.4138C125.047 36.8677 123.257 38.7556 121.944 40.9466C120.654 43.1422 119.895 45.5924 119.723 48.1131C119.558 50.6392 119.979 53.169 120.956 55.5165L121.022 55.6645L120.935 55.8077L116.536 63.1173L116.22 62.6731L124.973 61.4836H125.096L125.182 61.5625C127.518 63.6821 130.417 65.1281 133.554 65.7381C134.336 65.8936 135.129 65.9877 135.927 66.0194C138.325 66.1854 140.732 65.8487 142.985 65.0323C144.495 64.5047 145.916 63.7629 147.201 62.831C147.849 62.3756 148.466 61.8811 149.049 61.3503C149.615 60.7998 150.146 60.2163 150.638 59.6031C152.632 57.1076 153.872 54.1241 154.218 50.9856Z" fill="#263238"/>
<path id="Vector_151" d="M134.786 58.8875L127.321 51.5631L129.827 49.1595L134.191 53.4386L143.25 39.6683L146.224 41.5093L134.786 58.8875Z" fill="#00AB9B" fill-opacity="0.37"/>
</g>
<g id="Boxes">
<path id="Vector_152" d="M206.301 160.255H131.022V216.801H206.301V160.255Z" fill="#00AB9B" fill-opacity="0.37"/>
<path id="Vector_153" opacity="0.2" d="M206.301 160.255H131.022V216.801H206.301V160.255Z" fill="black"/>
<path id="Vector_154" opacity="0.2" d="M131.023 216.806H159.534V160.259H131.023V216.806Z" fill="black"/>
<path id="Vector_155" d="M132.988 212.932C135.103 208.911 137.196 204.877 139.267 200.83L145.449 188.669L151.56 176.453C153.596 172.376 155.601 168.283 157.573 164.173C155.465 168.194 153.374 172.228 151.3 176.275L145.113 188.442L139.002 200.657C136.975 204.717 134.971 208.809 132.988 212.932Z" fill="#00AB9B" fill-opacity="0.37"/>
<path id="Vector_156" d="M132.988 164.149C134.974 168.255 136.979 172.348 139.002 176.428L145.113 188.644L151.3 200.805C153.367 204.852 155.458 208.886 157.573 212.907C155.591 208.801 153.586 204.709 151.56 200.632L145.449 188.417L139.267 176.251C137.193 172.204 135.1 168.17 132.988 164.149Z" fill="#00AB9B" fill-opacity="0.37"/>
<path id="Vector_157" d="M149.548 160.255H140.892V167.154H149.548V160.255Z" fill="#EBEBEB"/>
<path id="Vector_158" d="M190.484 204.749H189.878V213.041H190.484V204.749Z" fill="#263238"/>
<path id="Vector_159" d="M191.935 204.749H191.329V213.041H191.935V204.749Z" fill="#263238"/>
<path id="Vector_160" d="M193.392 204.749H192.786V213.041H193.392V204.749Z" fill="#263238"/>
<path id="Vector_161" d="M194.848 204.749H194.242V213.041H194.848V204.749Z" fill="#263238"/>
<path id="Vector_162" d="M196.304 204.749H195.698V213.041H196.304V204.749Z" fill="#263238"/>
<path id="Vector_163" d="M197.761 204.749H197.155V213.041H197.761V204.749Z" fill="#263238"/>
<path id="Vector_164" d="M199.212 204.749H198.606V213.041H199.212V204.749Z" fill="#263238"/>
<path id="Vector_165" d="M200.668 204.749H200.062V213.041H200.668V204.749Z" fill="#263238"/>
<path id="Vector_166" d="M202.125 204.749H201.519V213.041H202.125V204.749Z" fill="#263238"/>
<path id="Vector_167" d="M183.925 212.409L186.257 213.036H180.783L183.115 212.404V209.354C181.445 209.141 180.783 207.547 180.783 204.754H186.257C186.257 207.537 185.595 209.141 183.925 209.354V212.409Z" fill="#263238"/>
<path id="Vector_168" d="M179.506 208.979H178.075V213.036H174.414V208.979H172.978L176.247 204.754L179.506 208.979Z" fill="#263238"/>
<path id="Vector_169" opacity="0.1" d="M206.301 216.801V212.833L159.534 205.484V216.801H206.301Z" fill="black"/>
<path id="Vector_170" d="M203.587 140.315H145.429V160.254H203.587V140.315Z" fill="#00AB9B" fill-opacity="0.37"/>
<path id="Vector_171" opacity="0.2" d="M203.587 140.315H145.429V160.254H203.587V140.315Z" fill="black"/>
<path id="Vector_172" opacity="0.2" d="M145.433 160.255H163.205V140.315H145.433V160.255Z" fill="black"/>
<path id="Vector_173" d="M146.655 158.882C147.969 157.461 149.278 156.04 150.566 154.613L154.421 150.324L158.23 146.015C159.493 144.578 160.742 143.135 161.978 141.687C160.661 143.105 159.357 144.528 158.067 145.956L154.207 150.25L150.403 154.559C149.14 155.99 147.891 157.431 146.655 158.882Z" fill="#00AB9B" fill-opacity="0.37"/>
<path id="Vector_174" d="M146.655 141.687C147.891 143.131 149.14 144.574 150.403 146.015L154.207 150.324L158.067 154.613C159.357 156.041 160.661 157.464 161.978 158.882C160.739 157.431 159.489 155.989 158.23 154.554L154.421 150.25L150.566 145.961C149.278 144.525 147.969 143.103 146.655 141.687Z" fill="#00AB9B" fill-opacity="0.37"/>
<path id="Vector_175" d="M156.978 140.315H151.58V144.984H156.978V140.315Z" fill="#EBEBEB"/>
<path id="Vector_176" d="M193.727 152.743H193.351V157.91H193.727V152.743Z" fill="#263238"/>
<path id="Vector_177" d="M194.635 152.743H194.258V157.91H194.635V152.743Z" fill="#263238"/>
<path id="Vector_178" d="M195.541 152.743H195.164V157.91H195.541V152.743Z" fill="#263238"/>
<path id="Vector_179" d="M196.447 152.743H196.07V157.91H196.447V152.743Z" fill="#263238"/>
<path id="Vector_180" d="M197.353 152.743H196.977V157.91H197.353V152.743Z" fill="#263238"/>
<path id="Vector_181" d="M198.26 152.743H197.883V157.91H198.26V152.743Z" fill="#263238"/>
<path id="Vector_182" d="M199.172 152.743H198.795V157.91H199.172V152.743Z" fill="#263238"/>
<path id="Vector_183" d="M200.078 152.743H199.701V157.91H200.078V152.743Z" fill="#263238"/>
<path id="Vector_184" d="M200.984 152.743H200.607V157.91H200.984V152.743Z" fill="#263238"/>
<path id="Vector_185" d="M189.639 157.515L191.096 157.91H187.679L189.135 157.51V155.61C188.117 155.482 187.679 154.485 187.679 152.743H191.096C191.096 154.48 190.683 155.482 189.639 155.61V157.515Z" fill="#263238"/>
<path id="Vector_186" d="M186.884 155.378H185.993V157.91H183.712V155.378H182.815L184.852 152.743L186.884 155.378Z" fill="#263238"/>
<path id="Vector_187" opacity="0.1" d="M203.586 160.254V157.782L163.2 153.201V160.254H203.586Z" fill="black"/>
</g>
</g>
</g>
</svg>
