<svg xmlns="http://www.w3.org/2000/svg" width="40" height="40" viewBox="0 0 41 41" fill="none">
    <path d="M8.1735 6.08325C6.70017 6.08325 5.50684 7.27659 5.50684 8.74992V32.7499C5.50684 34.2233 6.70017 35.4166 8.1735 35.4166H32.1735C33.6468 35.4166 34.8402 34.2233 34.8402 32.7499V8.74992C34.8402 7.27659 33.6468 6.08325 32.1735 6.08325H8.1735ZM11.7048 12.7499H17.8532L21.4417 17.8801L25.8818 12.7499H27.8167L22.3115 19.1249L29.0459 28.7499H22.8975L18.9157 23.0572L13.999 28.7499H12.0329L18.0407 21.8098L11.7048 12.7499ZM14.6787 14.328L23.6839 27.164H26.0693L17.0615 14.328H14.6787Z" fill="white"/>
  </svg>